<?xml version="1.0" standalone="no"?>
<!DOCTYPE svg PUBLIC "-//W3C//DTD SVG 1.1//EN" "http://www.w3.org/Graphics/SVG/1.1/DTD/svg11.dtd" >
<svg xmlns="http://www.w3.org/2000/svg">
<metadata>
<json>
<![CDATA[
{
	"fontFamily": "vertiv-svg-font",
	"majorVersion": 2,
	"minorVersion": 2,
	"description": "VertivRebrand\nFont generated by IcoMoon.",
	"copyright": "March 1, 2017",
	"designer": "Sarah Hicks",
	"version": "Version 2.2",
	"fontId": "vertiv-svg-font",
	"psName": "vertiv-svg-font",
	"subFamily": "Regular",
	"fullName": "vertiv-svg-font"
}
]]>
</json>
</metadata>
<defs>
<font id="vertiv-svg-font" horiz-adv-x="1024">
<font-face units-per-em="1024" ascent="960" descent="-64" />
<missing-glyph horiz-adv-x="1024" />
<glyph unicode="&#x20;" horiz-adv-x="0" d="" />
<glyph unicode="&#x29;" glyph-name="alarms" data-tags="warning, alarms" horiz-adv-x="1022" d="M512.406 900.876l-459.378-894.984h914.286l-454.908 894.984zM587.581 652.597l-28.444-393.549h-91.225l-28.444 393.549h148.114zM513.016 53.638c-44.089 0-78.222 34.133-78.222 77.206 0 44.089 34.133 78.222 78.222 78.222s79.035-34.133 79.035-78.222c0.203-43.073-34.946-77.206-79.035-77.206z" />
<glyph unicode="&#x41;" glyph-name="space" data-tags="space" d="M972.8-12.8v921.6l-921.6-1.024v-919.962l921.6-0.614zM460.8 89.395h-307.2v716.186h307.2v-716.186zM870.4 89.395h-307.2v302.285h307.2v-302.285zM870.4 498.586h-307.2v306.995h307.2v-306.995z" />
<glyph unicode="&#x57;" glyph-name="remove-item" data-tags="minus, remove item" horiz-adv-x="1025" d="M512.819 908.8c-254.566 0-460.8-206.438-460.8-460.8s206.234-460.8 460.8-460.8 460.8 206.234 460.8 460.8-206.438 460.8-460.8 460.8zM768.819 393.728h-514.048v98.304h514.048v-98.304z" />
<glyph unicode="&#x58;" glyph-name="decrement-selected" data-tags="decrement selected" d="M53.248 908.8v-921.6h921.6v921.6h-921.6zM877.158 376.525h-728.269v141.312h728.064l0.205-141.312z" />
<glyph unicode="&#x59;" glyph-name="datacenter" data-tags="datacenter" d="M792.166 908.39v-204.186h-743.014v-716.8h925.696v920.986h-182.682zM792.166 64.41l-662.323 0.614v562.381h662.323v-562.995zM613.99 553.677h127.181v-102.4h-127.181v102.4zM613.99 388.198h127.181v-99.942h-127.181v99.942zM408.371 553.677h127.181v-102.4h-127.181v102.4zM205.21 553.677h126.362v-102.4h-126.362v102.4zM205.21 388.198h126.362v-99.942h-126.362v99.942zM408.371 388.198h127.181v-99.942h-127.181v99.942zM613.99 219.238h127.181v-99.942h-127.181v99.942zM408.371 219.238h127.181v-99.942h-127.181v99.942zM205.21 219.238h126.362v-99.942h-126.362v99.942z" />
<glyph unicode="&#x5a;" glyph-name="user-groups" data-tags="user groups" d="M377.651 392.294c-114.278 0-207.053 91.75-207.053 204.8s92.979 204.8 207.053 204.8 207.053-91.75 207.053-204.8-92.979-204.8-207.053-204.8zM568.525 367.514h-82.33c-34.406-14.746-71.68-24.576-109.363-24.576-40.755 0.41-81.101 8.806-118.784 24.576h-71.68c-61.85 0-111.821-49.971-111.821-111.821v0 0l-23.347-190.054h652.493l-23.347 190.054c0 61.645-49.971 111.821-111.821 111.821v0 0zM728.269 821.146c-60.211 0.205-115.098-34.611-140.902-89.088 34.611-52.634 47.923-116.326 36.659-178.381 28.672-25.6 65.741-39.731 104.038-39.731 85.606 0 155.443 68.813 155.443 153.6s-69.632 153.6-155.238 153.6v0zM590.234 417.69c74.752 0 135.373-60.621 135.373-135.373v0l1.638-13.517h245.555l-17.408 142.541c0 46.285-37.478 83.763-83.763 83.763h-61.645c-25.805-11.059-53.862-18.432-81.92-18.432-30.515 0.205-60.826 6.554-89.088 18.432h-32.768c-13.312-29.286-32.358-55.706-55.706-77.619l39.731 0.205z" />
<glyph unicode="&#x65;" glyph-name="edit-grid" data-tags="edit grid" horiz-adv-x="1028" d="M429.646 465.111l371.738 371.738 100.646-100.646-371.738-371.738-100.646 100.646zM824.352 859.717l50.395 50.395 100.646-100.646-50.395-50.395-100.646 100.646zM925.082 690.483v0l-35.84-35.84v-31.334h-31.334l-72.909-72.909h104.243v-210.33h-206.438v108.339l-72.909-72.909v-35.43h-35.43l-44.032-44.442-115.507-28.467h195.379v-204.39h-204.39v202.138l-72.909-18.022v-183.91h-208.486v204.186h188.621l17.613 72.909h-206.234v210.33h208.282v-201.728l28.058 116.326 44.646 44.851v40.55h40.55l72.909 72.909h-113.459v204.186h204.39v-113.459l72.909 72.909v40.55h40.55l72.909 72.909h-744.653v-910.336h910.336v737.28l-36.864-36.864zM124.518 827.699h208.282v-204.39h-208.282v204.39zM889.242 62.976h-206.438v204.39h206.438v-204.39zM510.362 343.347l-135.782-35.226 35.226 135.782z" />
<glyph unicode="&#x67;" glyph-name="dataopening" data-tags="data opening, data port" d="M894.362 691.302h-764.723l-102.4-104.858v-276.89l102.4-104.858h764.723l102.4 105.062v276.685l-102.4 104.858zM768.41 590.746c21.299 0 38.502-17.203 38.502-38.502s-17.203-38.502-38.502-38.502-38.502 17.203-38.502 38.502c0 21.299 17.203 38.502 38.502 38.502zM641.434 590.746c21.299 0 38.502-17.203 38.502-38.502s-17.203-38.502-38.502-38.502-38.502 17.203-38.502 38.502c0 21.299 17.203 38.502 38.502 38.502zM510.362 590.746c21.299 0 38.502-17.203 38.502-38.502s-17.203-38.502-38.502-38.502-38.502 17.203-38.502 38.502 17.203 38.502 38.502 38.502zM385.434 590.746c21.299 0 38.502-17.203 38.502-38.502s-17.203-38.502-38.502-38.502-38.502 17.203-38.502 38.502 17.203 38.502 38.502 38.502zM252.314 590.746c21.299 0 38.502-17.203 38.502-38.502s-17.203-38.502-38.502-38.502-38.502 17.203-38.502 38.502c0 21.299 17.203 38.502 38.502 38.502zM150.323 448c0 21.299 17.203 38.502 38.502 38.502s38.502-17.203 38.502-38.502c0-21.299-17.203-38.502-38.502-38.502s-38.502 17.203-38.502 38.502zM252.314 307.098c-21.299 0-38.502 17.203-38.502 38.502s17.203 38.502 38.502 38.502 38.502-17.203 38.502-38.502-17.203-38.502-38.502-38.502zM311.706 409.498c-21.299 0-38.502 17.203-38.502 38.502s17.203 38.502 38.502 38.502 38.502-17.203 38.502-38.502-17.203-38.502-38.502-38.502zM385.434 307.098c-21.299 0-38.502 17.203-38.502 38.502s17.203 38.502 38.502 38.502 38.502-17.203 38.502-38.502-17.203-38.502-38.502-38.502zM408.371 448c0 21.299 17.203 38.502 38.502 38.502s38.502-17.203 38.502-38.502-17.203-38.502-38.502-38.502-38.502 17.203-38.502 38.502zM510.362 307.098c-21.299 0-38.502 17.203-38.502 38.502s17.203 38.502 38.502 38.502 38.502-17.203 38.502-38.502-17.203-38.502-38.502-38.502zM573.85 409.498c-21.299 0-38.502 17.203-38.502 38.502s17.203 38.502 38.502 38.502 38.502-17.203 38.502-38.502-17.203-38.502-38.502-38.502zM641.434 307.098c-21.299 0-38.502 17.203-38.502 38.502s17.203 38.502 38.502 38.502 38.502-17.203 38.502-38.502-17.203-38.502-38.502-38.502zM664.371 448c0 21.299 17.203 38.502 38.502 38.502s38.502-17.203 38.502-38.502-17.203-38.502-38.502-38.502-38.502 17.203-38.502 38.502zM768.41 307.098c-21.299 0-38.502 17.203-38.502 38.502s17.203 38.502 38.502 38.502 38.502-17.203 38.502-38.502-17.203-38.502-38.502-38.502zM831.898 409.498c-21.299 0-38.502 17.203-38.502 38.502s17.203 38.502 38.502 38.502 38.502-17.203 38.502-38.502-17.203-38.502-38.502-38.502z" />
<glyph unicode="&#x6a;" glyph-name="monitoring-configuration" data-tags="monitoring configuration" d="M974.848 381.235v133.939h-141.107c-7.987 40.141-23.552 78.234-45.67 112.64l99.123 98.918-94.618 94.618-98.304-98.304c-34.406 23.142-72.704 39.322-113.254 47.718v138.035h-133.939v-138.035c-40.346-8.602-78.848-24.781-113.254-47.718l-98.304 98.304-94.618-94.822 99.123-98.918c-22.323-34.202-37.683-72.499-45.67-112.64h-141.107v-133.939h142.746c8.602-39.117 24.576-76.39 46.694-109.773l-101.786-101.786 94.618-94.618 102.605 102.605c33.178-21.504 70.246-36.864 108.954-44.851v-145.408h133.939v145.408c38.707 8.192 75.776 23.347 108.954 44.851l102.605-102.605 94.618 94.618-101.99 101.99c22.323 33.382 38.093 70.451 46.694 109.773h142.95zM519.782 659.149c117.146-0.205 212.173-94.822 212.992-211.763h-35.635l-30.72 94.618-37.069-94.413h-131.277l-14.131 61.235-33.997-98.918-41.779 196.198-34.816-137.626h-65.536c11.674 108.339 103.014 190.464 211.968 190.669zM519.782 232.96c-111.002 0-203.162 85.197-212.378 195.789h87.654l36.045-146.227 59.392 126.976 162.611 0.41 8.806 19.046 9.626-19.251h57.754c-17.613-102.195-106.086-176.538-209.51-176.742v0z" />
<glyph unicode="&#x6b;" glyph-name="more" data-tags="more" d="M629.35 795.136c0-63.906-51.806-115.712-115.712-115.712s-115.712 51.806-115.712 115.712c0 63.906 51.806 115.712 115.712 115.712s115.712-51.806 115.712-115.712zM628.736 450.048c0-63.906-51.806-115.712-115.712-115.712s-115.712 51.806-115.712 115.712c0 63.906 51.806 115.712 115.712 115.712s115.712-51.806 115.712-115.712zM629.35 104.96c0-63.906-51.806-115.712-115.712-115.712s-115.712 51.806-115.712 115.712c0 63.906 51.806 115.712 115.712 115.712s115.712-51.806 115.712-115.712z" />
<glyph unicode="&#x74;" glyph-name="rotate" data-tags="rotate" d="M740.762 703.181c-141.107 125.747-357.171 113.254-482.918-27.648-83.968-94.208-109.158-226.918-65.741-345.498l-104.038-60.006c-70.246 166.912-35.84 359.629 87.859 492.134l1.024-1.024c172.237 184.32 460.8 195.584 646.758 24.986l63.488 63.488 82.534-295.731-299.622 78.643 70.656 70.656zM570.163 112.538v-119.398c41.779 5.325 82.33 16.384 121.037 32.973l-59.802 103.424c-19.661-7.578-40.141-13.312-61.235-16.998zM333.21 24.269c38.912-16.384 80.077-27.443 122.061-32.563v120.218c-21.094 3.482-41.984 9.011-62.054 16.384l-60.006-104.038zM248.627 231.322l-103.834-60.006c10.65-14.131 22.118-27.648 34.406-40.346l0.614-0.614c1.843-2.048 3.891-3.891 5.734-5.939s3.891-3.891 5.734-5.734l0.614-0.614c13.312-12.902 27.443-24.986 42.189-36.25l60.006 104.038c-16.589 13.722-31.949 28.877-45.466 45.466zM730.522 187.904l60.006-104.038c33.178 25.395 62.669 55.296 87.859 88.678l-103.834 60.006c-13.312-16.179-28.058-31.13-44.032-44.646zM831.488 332.288l104.243-60.211c15.974 38.502 26.624 78.848 31.744 120.218h-120.218c-3.482-20.275-8.806-40.55-15.77-60.006z" />
<glyph unicode="&#xe001;" glyph-name="maintenance" data-tags="maintenance" d="M847.667 907.776c-40.141 0-77.824-18.842-101.99-50.995l-271.155-271.155v-50.995l40.96-40.96-34.611-34.611-76.39 76.39c34.202 92.57-13.312 195.379-105.882 229.376-19.661 7.168-40.55 11.059-61.44 11.059-22.733 0-45.056-4.096-66.355-12.083l87.654-89.907v-106.086h-98.099l-90.317 91.75c-7.782-20.070-11.674-41.37-11.674-62.874 0-98.304 79.872-178.176 178.381-177.971 0 0 0 0 0.205 0 15.36 0 30.515 2.048 45.261 5.939l82.125-82.33-188.621-189.030h-26.419l-100.352-100.966 61.235-62.464 100.352 103.424v25.395l340.173 339.558 51.2-51.2h50.995l271.155 271.155c56.32 42.189 67.789 122.061 25.6 178.381-24.166 32.358-61.85 51.2-101.99 51.2zM601.498 458.035l-34.406 34.611 322.15 322.56 34.816-34.406-322.56-322.765zM667.853 345.19c-21.094 0-42.189-3.686-62.054-11.059l-55.091 55.091-116.736-116.531 60.826-60.826c-3.891-14.746-5.939-29.901-5.939-45.261-0.205-98.304 79.462-178.381 177.971-178.381 0 0 0 0 0.205 0 21.504 0 42.803 3.891 62.874 11.674l-91.546 90.317v97.894h106.086l90.112-87.654c7.987 21.094 12.083 43.622 12.083 66.355-0.41 98.304-80.282 178.176-178.79 178.381z" />
<glyph unicode="&#xe002;" glyph-name="call-customer-support-contact" data-tags="call customer support contact" d="M384.819 394.547c40.141-34.816 68.813-37.888 126.362-37.888 125.542 0 223.437 96.87 223.437 220.774s-98.099 220.774-223.437 220.774-223.437-96.87-223.437-220.774c0-15.974 3.891-38.502 7.168-53.658l121.242-20.275-15.565-111.616-15.77 2.662zM843.776 202.24c0 67.789-55.091 122.88-122.88 122.88v0h-90.317c-37.683-16.384-78.848-27.034-120.013-27.034-44.851 0.41-89.088 9.421-130.458 27.034h-79.053c-67.789 0-122.88-55.091-122.88-122.88v0l-25.6-208.896h716.8l-25.6 208.896zM190.259 506.368c7.782-34.816 17.818-66.56 17.818-66.56l131.891-20.89 1.229 0.41 9.011 60.621-101.786 15.155c-3.686 17.408-10.445 63.898-10.445 82.33 0 143.155 128.205 266.035 272.998 266.035s272.998-122.675 272.998-266.035c0-10.24 1.229-0.205 0-10.24l56.525 0.41c0 179.61-147.866 325.837-329.523 325.837-147.046 0-271.974-95.846-314.163-227.533-23.757-5.12-52.429-39.322-52.429-80.691 0.205-37.888 23.552-69.427 45.875-78.848z" />
<glyph unicode="&#xe015;" glyph-name="arrow-down" data-tags="arrow, down" d="M514.048-10.752l457.728 461.824h-197.222l-181.862-183.706v641.434h-152.576v-647.987l-188.211 190.259h-197.222l457.728-461.824h1.638zM514.458-11.776h-2.458l-0.205 0.205-459.571 463.667h200.090l186.982-188.826v646.554h154.419v-640l180.429 182.272h200.090l-1.638-1.843-458.138-462.029zM512.819-9.728h0.819l455.68 459.776h-194.355l-183.296-185.139v642.867h-150.323v-649.421l-189.85 191.693h-194.355l455.68-459.776z" />
<glyph unicode="&#xe01a;" glyph-name="dropdown-arrow" data-tags="dropdown arrow" d="M513.024 218.624l460.8 460.8h-921.6z" />
<glyph unicode="&#xe02e;" glyph-name="open-window" data-tags="open window" horiz-adv-x="1021" d="M968.071 908.139l-569.454-2.644 122.026-122.026 226.561 1.22-397.194-404.109 94.367-94.367 401.262 407.973-1.22-234.493 122.026-122.026 2.644 569.454-1.017 1.017z" />
<glyph unicode="&#xe02f;" glyph-name="move-up" data-tags="move up" horiz-adv-x="1025" d="M53.248 216.781l460.595 461.824 460.595-459.776h-256.819l-203.366 203.366-204.595-205.414z" />
<glyph unicode="&#xe03f;" glyph-name="menu-back" data-tags="menu back" d="M267.059 672.87l-224.461-224.256 223.642-224.256v142.131h713.523v164.25h-712.704v17.408zM59.802 875.622h921.6v-164.25h-921.6v164.25zM59.802 184.627h921.6v-164.25h-921.6v164.25z" />
<glyph unicode="&#xe043;" glyph-name="barcode" data-tags="barcode" d="M102.195 217.6h-49.152v460.8h49.152v-460.8zM193.536 677.376h-49.152v-460.8h49.152v460.8zM337.101 678.4h-98.304v-360.653h98.304v360.653zM478.413 677.376h-98.304v-359.629h98.304v359.629zM568.115 678.4h-49.152v-460.8h49.152v460.8zM712.909 678.4h-98.304v-360.653h98.304v360.653zM804.864 678.4h-49.152v-360.653h49.152v360.653zM893.952 678.4h-49.152v-460.8h49.152v460.8zM979.968 678.4h-49.152v-460.8h49.152v460.8z" />
<glyph unicode="&#xe04b;" glyph-name="battery" data-tags="battery" d="M939.213 516.403v163.43h-888.422v-463.053h888.422v162.202h33.178v137.421h-33.178zM889.651 271.462h-789.299v360.038h789.299v-360.038zM136.602 309.146v271.155h449.741l279.757-271.155h-729.498z" />
<glyph unicode="&#xe04c;" glyph-name="battery-10" data-tags="battery-10" d="M939.213 516.403v163.43h-888.422v-463.053h888.422v162.202h33.178v137.421h-33.178zM889.651 271.462h-789.299v360.038h789.299v-360.038z" />
<glyph unicode="&#xe04f;" glyph-name="battery-40" data-tags="battery-40" d="M137.421 306.893v280.576h209.715l289.178-280.371-498.893-0.205zM941.056 516.403v163.43h-888.627v-463.053h888.422v162.202h33.178v137.421h-32.973zM891.29 271.462h-789.094v360.038h789.299v-360.038z" />
<glyph unicode="&#xe052;" glyph-name="battery-70" data-tags="battery-70" d="M939.213 516.403v163.43h-888.422v-463.053h888.422v162.202h33.178v137.421h-33.178zM889.651 271.462h-789.299v360.038h789.299v-360.038zM136.602 309.146v271.155h449.741l279.757-271.155h-729.498z" />
<glyph unicode="&#xe054;" glyph-name="battery-90" data-tags="battery-90" d="M135.578 306.483v281.395h714.342v-281.395h-714.342zM939.213 516.403v163.43h-888.422v-463.053h888.422v162.202h33.178v137.421h-33.178zM889.651 271.462h-789.299v360.038h789.299v-360.038z" />
<glyph unicode="&#xe081;" glyph-name="bluetooth" data-tags="bluetooth" d="M821.248 641.741l-372.122 269.107v-379.904l-197.427 142.95-46.49-64.102 220.57-159.744-220.365-159.539 46.49-64.102 197.427 142.95v-380.109l371.917 269.107-265.011 191.693 265.011 191.693zM528.384 755.814l157.696-114.074-157.491-114.074-0.205 228.147zM528.384 144.282v228.147l157.696-114.074-157.696-114.074z" />
<glyph unicode="&#xe0a7;" glyph-name="accessory-device-view" data-tags="accessory device view" d="M972.8 507.392v309.043l-921.6 1.024v-310.067h640.41v-100.557h-51.405l102.605-107.725 102.605 107.725h-51.405v100.557h178.79zM254.362 661.402h-100.557v102.605h100.557v-102.605zM434.995 661.402h-75.981v102.605h75.981v-102.605zM640.205 277.606h205.21v-154.010h-205.21v154.010z" />
<glyph unicode="&#xe0ac;" glyph-name="air-unit" data-tags="air unit, cooling unit" d="M53.248 908.8v-51.2h849.51v-638.976h51.2v690.176h-900.71zM104.448 629.248h-51.2v-585.523h560.947v51.2h-509.747v534.323zM851.763-10.957v54.067h-207.462v121.856h207.462v53.658l120.422-114.688-120.422-114.893zM480.666 169.677c-19.046 61.030-16.384 126.771 7.578 186.163-19.046 5.325-36.045 16.384-48.742 31.744-52.838-33.587-92.979-83.968-113.664-142.95-66.56 61.85-99.942 151.552-89.907 241.869 61.030 19.046 126.976 16.384 186.163-7.578 5.939 18.022 16.998 33.997 31.744 45.875-33.587 53.862-84.582 94.822-144.384 115.917 61.85 66.56 151.552 99.942 241.869 89.907 19.251-61.85 16.179-128.614-8.602-188.621 17.613-5.325 33.382-15.565 45.466-29.286 53.248 33.587 93.594 84.173 114.483 143.565 66.355-61.85 99.738-151.552 89.907-241.869-60.621-18.842-125.747-16.384-184.73 7.168-5.325-17.613-15.77-33.587-29.696-45.466 33.382-54.067 84.378-95.027 144.384-116.122-62.054-66.765-151.757-100.147-241.869-90.317zM259.686 621.875v54.067h-207.462v121.856h207.462v53.658l120.422-114.688-120.422-114.893z" />
<glyph unicode="&#xe0ad;" glyph-name="administration" data-tags="administration" d="M518.144 415.232c-52.429 0-95.232 42.189-95.232 94.413s42.803 94.413 95.232 94.413 95.232-42.189 95.232-94.413c-0.205-52.429-42.803-94.618-95.232-94.413v0zM973.824 382.054v133.734h-141.107c-7.987 40.141-23.347 78.234-45.466 112.64l99.123 98.918-94.822 94.822-98.304-98.304c-34.202 23.142-72.704 39.322-113.254 47.718v138.24h-133.939v-138.24c-40.55-8.602-78.848-24.576-113.459-47.514l-98.509 98.099-94.618-94.822 99.123-98.918c-22.118-34.406-37.683-72.499-45.466-112.64h-140.902v-133.734h142.746c8.602-39.117 24.576-76.39 46.694-109.568l-101.786-101.99 94.822-94.822 102.605 102.605c33.178-21.504 70.246-36.659 108.954-44.851v-145.408h133.734v145.408c38.707 8.192 75.571 23.347 108.954 44.851l102.605-102.605 94.822 94.822-101.786 101.99c22.323 33.382 38.093 70.451 46.694 109.568h142.541zM665.19 292.352l-7.373 59.802c0 28.467-22.938 51.405-51.405 51.61 0 0 0 0-0.205 0h-37.888c-15.77-7.168-32.973-10.854-50.176-11.264-18.842 0.205-37.478 4.096-54.886 11.264h-33.178c-28.467 0-51.61-22.938-51.61-51.405l-7.168-58.778c-84.992 81.51-87.859 216.474-6.349 301.261s216.474 87.859 301.261 6.349 87.859-216.474 6.349-301.261c-2.253-2.662-4.915-5.12-7.373-7.578z" />
<glyph unicode="&#xe0b2;" glyph-name="message" data-tags="message" d="M974.848 781.414v-27.238l-460.8-460.8-460.8 460.8v27.238h921.6zM514.048 216.371l-3.482 3.686-457.318 457.318v-534.938h921.6v534.938l-460.8-461.005z" />
<glyph unicode="&#xe0d7;" glyph-name="datepicker" data-tags="datepicker" horiz-adv-x="1023" d="M827.187 690.483h-172.646v121.242h-291.021v-121.242h-168.755v121.242h-119.398v-824.525h873.267v824.525h-121.242v-121.242zM899.072 84.275h-774.144v556.851h774.144v-556.851zM512 423.834h242.483v-242.483h-242.483v242.483zM244.326 908.8h71.885v-170.803h-71.885v170.803zM702.054 908.8h75.571v-170.803h-75.571v170.803z" />
<glyph unicode="&#xe0eb;" glyph-name="camera" data-tags="camera" d="M743.424 678.4l-99.123 98.304h-263.578l-99.123-98.304h-229.376v-632.832h921.6v632.832h-230.4zM513.024 132.403c-126.771 0-229.581 102.81-229.581 229.581s102.81 229.581 229.581 229.581 229.581-102.605 229.581-229.376v0c0-126.976-102.81-229.581-229.581-229.786zM513.024 518.042c-86.016 0-155.853-69.837-155.853-155.853s69.837-155.853 155.853-155.853 155.853 69.837 155.853 155.853c0 86.016-69.837 155.648-155.853 155.853z" />
<glyph unicode="&#xe101;" glyph-name="shopping-cart" data-tags="shopping cart" horiz-adv-x="1485" d="M574.362 266.547c-36.454 0-65.741-30.106-65.741-67.174s29.491-67.174 65.741-67.174 65.741 30.106 65.741 67.174-29.286 67.174-65.741 67.174zM936.653 266.547c-36.454 0-65.741-30.106-65.741-67.174s29.491-67.174 65.741-67.174 65.741 30.106 65.741 67.174-29.491 67.174-65.741 67.174zM426.701 667.341l-66.355 100.557h-65.741c-27.648-0.819-49.562-23.962-48.742-51.61 0.819-26.624 22.118-47.923 48.742-48.742h29.082l168.346-337.715h564.019l110.797 337.306-740.147 0.205z" />
<glyph unicode="&#xe104;" glyph-name="shopping-cart-add" data-tags="shopping cart add" horiz-adv-x="1364" d="M526.362 238.49c-36.454 0-65.741-30.106-65.741-67.174s29.491-67.174 65.741-67.174 65.741 30.106 65.741 67.174-29.286 67.174-65.741 67.174zM888.653 238.49c-36.454 0-65.741-30.106-65.741-67.174s29.491-67.174 65.741-67.174 65.741 30.106 65.741 67.174-29.491 67.174-65.741 67.174zM912.614 639.283c0-113.050-91.75-204.8-204.8-204.8s-204.8 91.75-204.8 204.8h-124.314l-66.355 100.557h-65.741c-27.648-0.819-49.562-23.962-48.742-51.61 0.819-26.624 22.118-47.923 48.742-48.742h29.082l168.346-337.51h564.019l110.797 337.306h-206.234zM708.019 488.755c84.787 0 153.6 68.813 153.6 153.6s-68.813 153.6-153.6 153.6-153.6-68.813-153.6-153.6 68.608-153.6 153.6-153.6v0zM615.245 661.402h73.523v73.523h38.093v-73.523h73.523v-38.093h-73.523v-73.523h-38.093v73.523h-73.523v38.093z" />
<glyph unicode="&#xe121;" glyph-name="ok" data-tags="ok" d="M510.157 240.128l-114.074-114.893-297.984 296.96h184.934l114.483-113.869 310.477 310.067h181.248z" />
<glyph unicode="&#xe124;" glyph-name="success" data-tags="success" horiz-adv-x="1022" d="M967.314 446.781c0-251.937-204.19-456.33-456.33-456.33s-456.127 204.394-456.127 456.33 204.19 456.33 456.33 456.33 456.127-204.19 456.127-456.33zM886.248 616.838h-179.81l-308.013-307.606-113.778 112.965h-183.263l295.619-294.806 113.168 113.981 376.076 375.467z" />
<glyph unicode="&#xe129;" glyph-name="unchecked-box" data-tags="unchecked box" d="M768 192h-510.976v510.976h510.976v-510.976zM306.176 241.152h412.672v412.672h-412.672v-412.672z" />
<glyph unicode="&#xe12a;" glyph-name="checkbox-checked" data-tags="checkbox checked" horiz-adv-x="1047" d="M791.969 170.868h-566.178v566.178h566.178zM280.253 225.33h457.254v457.254h-457.254zM626.563 344.488l-126.375-127.396-330.199 329.2h204.845l126.987-126.216 343.905 343.497h200.942l-420.107-419.085z" />
<glyph unicode="&#xe14a;" glyph-name="clipboard-task" data-tags="clipboard, task" d="M384 731.648v-79.872h251.904v79.872h-51.405c15.36 38.502-3.277 81.92-41.779 97.28s-81.92-3.277-97.28-41.779c-7.168-17.818-7.168-37.683 0-55.501h-61.44zM515.072 785.101c14.131 0 25.805-11.469 25.805-25.805 0-14.131-11.469-25.805-25.805-25.805s-25.805 11.469-25.805 25.805v0c0 14.336 11.674 25.805 25.805 25.805zM685.056 731.648v-129.024h-350.208v129.024h-51.2v-661.504h460.8v661.504h-59.392zM533.299 357.069l-49.357-49.357-129.024 129.024h80.077l49.562-49.766 134.349 133.734h78.643l-164.25-163.635z" />
<glyph unicode="&#xe14d;" glyph-name="building" data-tags="building" d="M444.006 576h-75.571v75.571h75.571v-75.571zM444.006 424.653h-75.571v75.571h75.571v-75.571zM444.006 273.51h-75.571v75.571h75.571v-75.571zM444.006 119.091h-75.571v75.571h75.571v-75.571zM325.632 576h-75.571v75.571h75.571v-75.571zM325.632 424.653h-75.571v75.571h75.571v-75.571zM325.632 273.51h-75.571v75.571h75.571v-75.571zM325.632 119.091h-75.571v75.571h75.571v-75.571zM513.024 907.776v-131.277h-394.445v-788.685h788.685v919.962h-394.24zM513.024 53.35h-328.704v657.203h328.499v-657.203zM673.997 805.786h75.571v-75.571h-75.571v75.571zM752.845 119.091h-78.848v75.571h78.848v-75.571zM752.845 273.51h-78.848v75.571h78.848v-75.571zM752.845 424.653h-78.848v75.776h78.848v-75.776zM752.845 575.795h-78.848v75.571h78.848v-75.571z" />
<glyph unicode="&#xe158;" glyph-name="remote-communication" data-tags="remote, communication, infrastructure management" d="M337.51 405.402l42.598 167.936 50.79-239.411 41.37 120.627 16.998-74.752h183.91l45.261 115.098 38.502-115.098h198.656c-39.117 75.571-127.386 111.616-208.282 84.992 42.394 120.422-20.89 252.518-141.107 294.912-45.875 16.179-95.642 17.408-142.336 3.686-3.072-0.819-6.349-2.048-9.421-2.867-43.622-15.155-81.715-42.803-109.363-79.667-2.048-2.662-3.891-5.12-5.734-7.987s-3.686-5.325-5.325-8.192c-8.806-13.926-15.974-28.877-21.709-44.442-0.614-1.434-1.024-3.072-1.638-4.71-1.024-3.072-2.048-6.349-2.867-9.626-1.843-6.554-3.277-12.902-4.915-19.661-6.349 0.614-12.493 0.819-19.046 0.819h-5.325c-106.496-2.458-197.427-77.21-220.365-181.248l279.347-0.41zM725.197 333.517l-10.445 23.552-12.083-23.142-222.208-0.41-72.499-154.829-43.827 178.381h-309.862l-1.024-10.035v-3.072c0-1.024 0.205-2.048 0.205-3.072 0-0.614 0-1.229 0.205-1.843 0-1.024 0.205-2.048 0.205-3.072 0-0.614 0.205-1.024 0.205-1.843 0.205-1.024 0.205-2.048 0.41-3.072 0-0.614 0.205-1.024 0.205-1.843 0.205-1.024 0.205-2.048 0.41-3.072 0-0.614 0.205-1.024 0.205-1.638 0.205-1.024 0.41-2.048 0.41-3.072 0-0.614 0.205-1.229 0.41-1.638 0.205-1.024 0.41-2.048 0.614-3.072 0.205-0.614 0.205-1.024 0.41-1.638 0.205-1.024 0.41-2.048 0.614-3.072 0.205-0.614 0.205-1.024 0.41-1.638 0.205-1.024 0.41-2.048 0.614-3.072 0.205-0.614 0.205-1.024 0.41-1.638 0.205-1.024 0.614-2.048 0.819-3.072 0.205-0.614 0.41-1.024 0.41-1.638 0.205-1.024 0.614-2.048 0.819-3.072 0.205-0.614 0.41-1.024 0.41-1.638 0.41-1.024 0.614-2.048 0.819-3.072l0.614-1.434c0.41-1.024 0.614-2.048 1.024-3.072l0.614-1.638c0.41-1.024 0.614-2.048 1.024-3.072l0.614-1.638c0.41-1.024 0.819-2.048 1.024-3.072l0.614-1.638 1.024-2.867 0.614-1.638 1.024-2.867 0.614-1.638 1.024-2.867 0.819-1.638c0.41-1.024 0.819-1.843 1.229-2.867l-0.614-1.638c0.41-1.024 0.819-1.843 1.229-2.867l0.819-1.638c0.41-1.024 1.024-1.843 1.229-2.662l0.819-1.638c0.41-1.024 1.024-1.843 1.229-2.662l1.024-1.638c0.614-1.024 1.024-1.638 1.434-2.662l1.024-1.638c0.614-1.024 1.024-1.638 1.434-2.662l1.024-1.638 1.434-2.458 1.024-1.638 1.434-2.458 1.024-1.638 1.434-2.458 1.024-1.638 1.434-2.253 1.024-1.638 1.638-2.253 1.024-1.638 1.638-2.253 1.024-1.434 1.638-2.253 1.229-1.434 1.638-2.048 1.229-1.434 1.638-2.048 1.229-1.434 1.638-2.048 1.434-1.638 1.638-1.843 9.83-9.83 1.638-1.434 1.843-1.638 1.638-1.434 1.843-1.638 1.638-1.434 1.843-1.638 11.059-8.602 2.048-1.434 1.843-1.229 2.048-1.229 1.843-1.229 2.048-1.229 1.843-1.229 2.048-1.229 1.843-1.024 2.253-1.229 1.843-1.024 2.253-1.229 1.843-1.024 2.253-1.229 1.843-1.024 2.253-1.229 1.843-1.024 2.253-1.024 2.048-1.024 2.458-1.024 1.843-1.024 2.458-1.024 1.843-1.024 2.458-1.024 2.048-1.024 2.458-1.024 2.048-0.819 2.458-1.024 2.048-0.819 4.506-1.638 2.048-0.819 2.458-0.819 2.048-0.614 2.662-0.819 2.253-0.205 2.867-1.024 1.024-0.205 3.482-1.024 0.819-0.205c2.867-0.819 5.734-1.229 8.602-2.048l33.178-5.12c0.614 0 0.819-0.205 1.434-0.205h510.566l31.744 2.867c95.437 6.349 167.731 89.088 161.178 184.525 0 0 0 0 0 0-0.614 7.168-1.434 14.336-2.867 21.504l-245.965-0.205z" />
<glyph unicode="&#xe189;" glyph-name="contact-card" data-tags="contact card" horiz-adv-x="1220" d="M430.848 459.059c-63.693 0-115.507 50.995-115.507 113.664s51.814 113.459 115.507 113.459 115.712-50.995 115.712-113.664-52.019-113.459-115.712-113.459zM537.344 445.338h-45.875c-19.251-8.602-39.936-13.312-61.030-13.722-22.733 0.205-45.261 4.71-66.15 13.722h-40.141c-34.406 0.205-62.259-27.648-62.464-62.054 0 0 0 0 0 0v0l-12.902-105.472h364.339l-13.107 105.472c-0.205 34.406-28.058 62.054-62.669 62.054 0.205 0 0.205 0 0 0v0 0zM1028.454 62.771h-191.693v89.293h-42.598v-89.293h-366.592v89.293h-46.285v-89.293h-189.645c-23.757 0-42.803 19.046-43.008 42.803v688.947c0.205 23.757 19.251 42.803 43.008 42.803h836.813c23.757 0 42.803-19.046 43.008-42.803v-688.947c-0.205-23.552-19.456-42.803-43.008-42.803zM886.118 111.923h136.192v676.25h-824.525v-676.25h134.349v89.293h144.589v-89.293h268.288v89.293h140.902l0.205-89.293zM677.632 718.95h304.742v-53.043h-304.742v53.043zM677.632 607.334h304.742v-53.043h-304.742v53.043zM677.632 495.309h304.742v-53.043h-304.742v53.043z" />
<glyph unicode="&#xe18a;" glyph-name="duplicate" data-tags="duplicate, copy" d="M503.808 714.24h-368.64v-737.28h512v591.872l-143.36 145.408zM573.44 50.688h-364.544v589.21h214.221v-155.034h150.323v-434.176zM473.498 535.654v104.243l99.942-104.858-99.942 0.614zM745.472 928.87h-368.64v-163.84h73.728v89.498h214.221v-155.034h150.323v-434.176h-119.808v-73.728h193.536v591.872l-143.36 145.408zM715.162 750.285v104.243l99.942-104.858-99.942 0.614z" />
<glyph unicode="&#xe1b4;" glyph-name="pointer-selector" data-tags="pointer, selector" d="M800.32 664.838l-684.588 182.266 182.266-684.588 180.451 180.451 290.101-290.101 141.42 141.42-290.101 290.101 180.451 180.451z" />
<glyph unicode="&#xe1b7;" glyph-name="select" data-tags="select" d="M723.558-12.8h-343.040l-8.397 15.36c-29.082 43.213-126.976 185.139-133.939 198.246-16.384 39.117-29.696 79.258-40.346 120.218-5.325 17.613-9.216 31.744-11.469 37.069s-10.24 17.613-16.589 29.082c-32.358 52.838-40.96 72.294-41.574 99.533-0.205 3.072-0.205 5.939 0 9.011 2.458 18.432 8.602 67.174 60.211 69.427 32.973 2.458 65.536-7.987 90.931-28.877 7.782-6.349 26.829-25.805 46.285-46.080l-4.096 337.92v1.843c5.939 47.718 48.333 82.33 96.256 78.848 45.056 0.819 83.763-31.13 91.955-75.366v-190.874c13.926 7.168 29.491 10.854 45.261 10.445 29.491 0.205 56.73-15.565 71.066-41.165 11.674 6.758 24.781 10.445 38.298 10.854 41.779 0.614 79.053-25.805 91.955-65.536 15.36 9.011 32.768 13.926 50.586 14.131 46.285 0 85.402-50.381 89.293-98.099 2.867-35.226-7.373-227.328-19.046-256-37.274-91.546-141.926-213.811-145.203-219.136l-8.397-10.854zM430.285 36.352h270.131c50.381 58.778 89.907 126.976 124.314 196.403 10.035 78.234 15.155 156.877 15.155 235.725-0.819 19.046-11.878 36.25-29.082 44.646-17.203 2.458-33.382-8.806-37.069-25.805-4.915-30.72-7.373-81.715-7.373-82.739h-57.958c0 64.102-2.867 122.47-5.939 134.554-4.506 14.95-18.637 24.986-34.202 24.371-13.107-1.229-22.938-12.493-22.323-25.6 0-20.275-3.686-107.93-3.686-108.749h-57.958v135.168c0 15.36-12.083 28.058-27.238 29.082-12.083-0.41-22.938-7.168-29.082-17.408-8.192-40.141-12.288-81.101-12.288-122.266h-57.958v369.869c-6.963 20.070-29.082 30.72-49.152 23.552 0 0 0 0 0 0-10.854-4.096-23.142-12.493-27.034-23.552v-483.123l-40.141 54.886c-29.082 32.154-82.944 85.402-92.57 95.437-14.131 12.493-33.178 18.022-51.61 14.541-4.301-5.325-6.963-11.878-7.373-18.842 0.205-5.53 1.638-11.059 4.301-15.974 7.987-19.046 17.818-37.478 29.082-54.886 7.987-12.083 15.155-24.576 21.299-37.683 2.458-5.939 6.963-21.709 12.698-41.779 9.83-37.274 21.709-73.933 35.84-109.773 2.458-9.011 71.066-109.773 118.579-178.586l18.637-11.469z" />
<glyph unicode="&#xe1bb;" glyph-name="close" data-tags="failed, close" d="M514.048 906.752c254.566 0 460.8-206.234 460.8-460.8s-206.234-460.8-460.8-460.8-460.8 206.234-460.8 460.8 206.234 460.8 460.8 460.8zM766.362 638.054l-60.416 60.416-191.898-192.102-192.102 192.102-60.416-60.416 192.102-192.102-192.102-192.102 60.416-60.416 192.102 192.102 192.102-192.102 60.416 60.416-192.102 192.102 191.898 192.102z" />
<glyph unicode="&#xe1bd;" glyph-name="connection-view" data-tags="connection view" d="M767.181 856.986h-384.205v-331.776h-126.976c-23.347 30.72-60.621 51.2-102.4 51.2-70.656 0-128-57.344-128-128s57.344-128 128-128c41.779 0 79.053 20.48 102.4 51.2h126.976v-333.824h382.976v0.614c24.576-31.13 61.645-51.2 103.424-51.2 70.656 0 128.614 57.344 128.614 128s-57.139 128-127.795 128c-42.394 0-79.667-20.48-102.81-52.224h-255.386v180.224h256c23.347-30.72 60.621-51.2 102.4-51.2 70.656 0 128 57.344 128 128s-57.344 128-128 128c-41.779 0-79.053-20.070-102.4-51.2h-256v178.176h253.952c22.528-31.13 61.645-50.586 103.424-50.586 70.656 0 128.614 57.549 128.614 128.205s-57.139 128-127.795 128c-42.394 0-79.667-20.48-103.014-51.61zM921.6 115.2c0-28.262-22.938-51.2-51.2-51.2s-51.2 22.938-51.2 51.2 22.938 51.2 51.2 51.2 51.2-22.938 51.2-51.2zM102.4 448.205c0 28.262 22.938 51.2 51.2 51.2s51.2-22.938 51.2-51.2c0-28.262-22.938-51.2-51.2-51.2s-51.2 22.733-51.2 51.2zM921.6 448.205c0-28.262-22.938-51.2-51.2-51.2s-51.2 22.938-51.2 51.2c0 28.262 22.938 51.2 51.2 51.2s51.2-23.142 51.2-51.2zM921.6 781.005c0-28.262-22.938-51.2-51.2-51.2s-51.2 22.938-51.2 51.2 22.938 51.2 51.2 51.2 51.2-22.938 51.2-51.2z" />
<glyph unicode="&#xe1c4;" glyph-name="trash" data-tags="trash" d="M690.176 39.424h-356.352l-52.224 588.8h460.8l-52.224-588.8zM742.81 752.128h-459.571v-73.728h459.366l0.205 73.728zM579.174 800.461h-132.506v-49.152h132.506v49.152z" />
<glyph unicode="&#xe1e8;" glyph-name="download" data-tags="download" d="M876.339 463.027v-312.115h-724.582v312.115h-98.509v-410.624h921.6v410.624zM693.658 405.478l-180.634-180.634-180.634 180.634zM463.667 686.669h98.509v-375.603h-98.509v375.603z" />
<glyph unicode="&#xe1f4;" glyph-name="enterprise" data-tags="enterprise" horiz-adv-x="1021" d="M506 843.669c-223.307 0-404.109-181.005-404.109-404.312s181.005-404.312 404.312-404.312 404.312 181.005 404.312 404.312-181.208 404.312-404.516 404.312zM396.381 762.928c26.439 4.881 53.081 8.135 79.52 9.355v-108.196c-38.642-0.814-72.402-3.457-108.196-7.728 7.932 38.642 16.473 74.436 28.676 106.569zM254.424 701.915c0.407 0.61 1.017 1.22 1.627 1.627 18.914 12.406 49.42 33.15 79.52 42.912-9.559-30.71-17.694-63.86-23.998-98.841-35.184-6.305-68.538-14.44-99.248-23.998 9.559 29.896 31.727 61.826 42.099 78.3zM195.851 557.315c17.084 6.305 35.591 13.016 55.115 18.507 16.677 4.678 33.76 7.932 51.658 11.592-4.474-37.014-7.118-76.673-7.932-115.314h-108.4c1.22 30.506 4.474 57.759 9.559 85.215zM186.496 415.155h108.196v-0.203c1.017-38.642 3.661-74.029 8.135-109.62-38.642 7.932-74.639 17.49-106.773 29.896-4.881 26.032-8.135 53.488-9.559 79.927zM259.712 186.966c-1.627 1.017-3.051 2.441-4.271 4.068-16.27 23.998-33.354 49.827-42.912 79.724 31.117-9.559 64.267-17.694 99.248-23.998 6.508-35.184 14.643-68.741 24.405-99.654-29.286 8.949-51.047 22.982-76.47 39.862zM475.901 121.276c-26.439 1.627-51.047 4.881-77.080 9.762-12.406 32.133-24.405 68.131-32.337 106.976 35.794-4.271 70.775-6.915 109.416-7.932v-108.806zM475.901 286.621c-42.709 1.017-79.113 3.457-117.958 8.745-5.288 38.438-5.491 78.91-6.508 119.585h124.466v-128.33zM476.104 471.897h-124.67c1.017 42.709 1.017 85.621 6.508 125.28 39.048 5.288 75.453 9.355 118.162 10.169v-135.449zM837.097 471.897h-108.196c-0.61 38.642-3.254 77.69-7.728 114.298 40.065-8.338 75.859-19.117 106.569-30.913 5.084-27.049 8.135-54.912 9.355-83.384zM762.865 704.559c1.627-1.017 3.051-2.441 4.068-4.068 12.203-19.321 35.387-48.81 44.743-78.3-30.71 9.762-64.064 17.897-99.044 24.405-6.305 35.184-14.44 68.538-23.998 99.248 29.286-9.762 57.556-29.896 74.232-41.285zM530.812 772.284c30.506-1.424 60.606-4.678 87.655-9.762 6.508-17.084 14.44-35.387 19.931-54.708 4.678-16.88 5.695-34.167 9.355-52.268-36.608 4.474-76.266 7.322-116.941 8.338v108.4zM614.603 130.428c-26.439-5.084-55.318-8.338-83.791-9.762v109.213c40.675 0.814 80.334 3.661 116.738 8.135-8.338-40.472-20.948-76.47-32.947-107.586zM657.719 295.569c-39.252-5.491-82.164-7.932-126.907-8.949v128.33h140.94c-1.22-40.675-8.949-81.961-14.033-119.382zM530.812 471.897v135.245c46.777-1.22 89.282-5.491 127.72-10.982 5.491-39.658 12.609-81.554 13.423-124.263h-141.143zM768.153 195.508c-1.22-1.83-2.847-3.457-4.678-4.678-23.185-16.27-47.387-34.167-76.876-43.726 9.762 30.913 17.897 64.47 24.405 99.858 35.184 6.508 68.741 14.643 99.654 24.405-9.355-29.49-27.863-53.488-42.506-75.859zM827.742 335.838c-32.54-12.406-68.538-22.168-107.383-30.303 4.474 35.591 7.118 72.809 8.338 109.416h108.4c-1.424-26.439-4.474-53.285-9.355-79.113z" />
<glyph unicode="&#xe1f8;" glyph-name="display-changes" data-tags="display changes" horiz-adv-x="1114" d="M994.586 80.998l-414.72 760.627-16.998 32.358-33.792-58.368-412.672-761.242-15.565-27.034 32.973-0.819 827.392 0.819 62.054-1.229-28.672 54.886zM297.651 104.755l228.557 413.286 223.027-419.43-451.584 6.144z" />
<glyph unicode="&#xe21a;" glyph-name="export" data-tags="export" d="M613.376 815.616h-311.296v-722.944h311.296v-98.304h-409.6v919.552h409.6zM836.608 454.144l-180.224 180.224v-130.048h-280.576v-98.304h280.576v-132.096z" />
<glyph unicode="&#xe21b;" glyph-name="visible" data-tags="visible" d="M972.8 450.048c0 0-206.234-229.99-460.8-229.99s-460.8 229.99-460.8 229.99 206.234 229.99 460.8 229.99 460.8-229.99 460.8-229.99zM514.048 629.862c-99.533 0-180.224-80.691-180.224-180.224s80.691-180.224 180.224-180.224 180.224 80.691 180.224 180.224-80.691 180.224-180.224 180.224zM620.544 449.638c0 58.778-47.718 106.496-106.496 106.496s-106.496-47.718-106.496-106.496 47.718-106.496 106.496-106.496 106.496 47.718 106.496 106.496v0z" />
<glyph unicode="&#xe21c;" glyph-name="invisible" data-tags="invisible" d="M622.592 448c0-8.192-1.024-16.589-2.867-24.576l-128.205 128.205c57.139 13.517 114.483-21.914 128.205-79.053 1.843-7.987 2.867-16.384 2.867-24.576zM514.048 678.4c-44.032-0.205-87.859-6.758-130.253-19.251l50.586-50.586c88.678 45.261 197.222 10.035 242.483-78.438 26.214-51.405 26.214-112.435 0-164.045l81.92-81.92c129.843 67.994 216.064 164.25 216.064 164.25s-206.234 229.99-460.8 229.99zM746.086 191.59l-52.224-52.224-88.678 88.678c-30.106-6.349-60.621-9.421-91.341-9.626-254.362 0.205-460.595 229.99-460.595 229.99s72.704 80.896 184.934 146.842l-31.539 31.539 52.224 52.019 487.219-487.219zM560.333 273.306l-71.885 71.885c-36.454 10.035-64.922 38.502-74.957 74.957l-71.885 71.885c-24.576-96.256 33.792-194.15 130.048-218.726 29.082-7.373 59.597-7.373 88.678 0v0z" />
<glyph unicode="&#xe224;" glyph-name="fan" data-tags="fan" d="M516.301-6.246c-122.061 0-236.954 47.514-323.584 133.734-86.835 86.426-134.758 201.318-134.963 323.789-0.41 122.47 47.104 237.568 133.53 324.198s201.523 134.554 323.789 134.963h0.819c0.205 0 0.614 0 0.819 0 251.904 0 457.114-204.8 457.523-457.114v-0.41c0.205-122.47-47.309-237.568-133.53-324.403-86.426-86.835-201.318-134.554-323.789-134.758 0 0-0.205 0-0.614 0zM515.277 871.936c-112.23-0.205-217.498-44.237-296.755-123.699s-122.675-184.934-122.266-296.96c0.205-112.23 44.237-217.498 123.699-296.55 79.258-79.053 184.525-122.47 296.346-122.47 0.205 0 0.41 0 0.819 0 112.026 0.205 217.498 44.032 296.55 123.494s122.47 184.934 122.266 297.165v0.41c-0.41 231.014-188.416 418.611-419.021 418.611-0.205 0-0.41 0-0.819 0h-0.819zM516.096 325.325c-70.042 0-127.181 56.934-127.181 126.771s57.139 126.771 127.181 126.771 127.181-56.934 127.181-126.771-57.139-126.771-127.181-126.771zM516.096 533.811c-45.261 0-82.125-36.659-82.125-81.715s36.864-81.715 82.125-81.715 82.125 36.659 82.125 81.715-36.864 81.715-82.125 81.715zM401.818 410.522c-9.216 25.19-9.83 52.634-1.638 78.234-78.848 33.382-167.117 37.683-248.832 12.083-12.902-118.17 30.72-235.315 117.76-316.416 27.853 79.053 81.92 146.227 153.395 190.054-8.806 10.65-15.974 22.938-20.685 36.045zM761.856 722.842c-27.853-79.258-82.33-146.637-154.010-190.464 27.648-31.334 37.069-74.752 25.19-114.688 78.438-32.563 165.683-36.454 246.579-11.264 12.698 118.374-30.925 235.52-117.76 316.416zM474.726 566.374c24.371 9.011 50.995 9.83 75.981 2.458 34.406 79.462 39.117 168.755 13.312 251.494-118.17 12.902-235.315-30.72-316.416-117.76 80.077-28.262 148.070-83.558 191.898-156.262 10.445 8.602 22.323 15.36 35.226 20.070zM596.173 360.755c-30.925-26.829-73.114-36.454-112.435-25.6-33.382-78.848-37.478-166.912-12.083-248.627 118.17-12.902 235.315 30.72 316.416 117.76-80.077 28.058-148.070 83.354-191.898 156.467z" />
<glyph unicode="&#xe225;" glyph-name="forward" data-tags="forward" horiz-adv-x="1025" d="M51.2 716.083l458.957-265.216-458.957-265.216zM513.843 711.373l458.957-265.216-458.957-265.216z" />
<glyph unicode="&#xe245;" glyph-name="tree" data-tags="tree" horiz-adv-x="940" d="M891.776 372.224v280.576h-280.576v-102.4h-360.448v75.776h102.4v282.624h-307.2v-282.624h104.448v-536.576h460.8v-102.4h280.576v282.624h-280.576v-110.592h-360.448v313.344h360.448v-100.352z" />
<glyph unicode="&#xe24e;" glyph-name="filter" data-tags="filter" horiz-adv-x="869" d="M826.854 909.824h-782.541v-44.442l334.643-337.101 1.434-540.058 112.435 112.435-1.434 429.67 335.462 335.053z" />
<glyph unicode="&#xe250;" glyph-name="filter-close" data-tags="filter close" horiz-adv-x="902" d="M676.787 910.848c-92.57-0.205-172.032-66.15-189.235-157.286h-429.875v-36.864l277.504-279.552 1.024-447.898 93.184 93.184-1.229 356.352 129.024 128.819c83.354-65.946 204.39-51.814 270.131 31.539s51.814 204.39-31.539 270.131c-33.587 27.034-75.776 41.574-118.989 41.574zM796.39 627.405l-28.672-28.672-91.136 91.136-91.136-91.136-28.672 28.672 91.136 91.136-90.931 91.136 28.672 28.672 91.136-91.341 91.136 91.136 28.672-28.672-89.702-89.702v-2.867l89.498-89.498zM705.254 718.541l1.434-1.434v2.867l-1.434-1.434z" />
<glyph unicode="&#xe267;" glyph-name="edit-floorplan" data-tags="edit floor plan" horiz-adv-x="1022" d="M434.213 472.404l366.814 366.814 99.342-99.342-366.814-366.814-99.342 99.342zM823.57 861.789l49.671 49.671 99.342-99.342-49.671-49.671-99.342 99.342zM128.41 213.299v51.814h188.211l17.818 73.933h-206.029v472.883h147.661v-373.146h82.534l7.782 32.563 43.418 43.213h-57.958v297.37h299.418v-54.886l73.728 73.933v56.934h-672.563v-674.611h38.093zM651.264 422.81v-83.763h-82.944l-34.816-34.816-158.515-39.117h276.275v-201.523h-522.854v26.010h-75.981v-99.942h898.253v732.774l-73.933-73.933v-584.909h-151.757v376.218l-57.754 1.024zM513.843 352.358l-134.144-34.611 34.816 133.734z" />
<glyph unicode="&#xe26a;" glyph-name="folder" data-tags="folder" d="M360.448 564.122l102.4 102.195 0.41-1.229h509.542v77.824h-360.448l-100.352 102.4h-460.8v-282.624h309.658zM386.048 511.488h-334.848v-460.8h921.6v563.2h-484.352z" />
<glyph unicode="&#xe284;" glyph-name="text-align" data-tags="text align" horiz-adv-x="919" d="M50.176 758.272h645.12v-51.2h-645.12v51.2zM50.176 612.864h819.2v-53.248h-819.2v53.248zM50.176 467.456h645.12v-51.2h-645.12v51.2zM50.176 330.24h821.248v-51.2h-821.248v51.2zM50.176 186.88h645.12v-51.2h-645.12v51.2zM50.176 39.424h827.392v-51.2h-827.392v51.2zM50.176 909.824h827.392v-51.2h-827.392v51.2z" />
<glyph unicode="&#xe2a6;" glyph-name="renumber" data-tags="renumber" d="M190.874 886.682v-183.91h-30.106v146.432l-43.213-21.709v31.539l55.296 27.648h18.022zM190.669 491.418c0.205 6.963-2.458 13.722-7.578 18.637s-11.878 7.373-20.685 7.373c-9.216 0-16.179-2.867-21.094-8.602-5.12-6.144-7.987-13.926-8.397-21.914h-31.744c0.819 8.192 2.867 15.974 6.349 23.347 3.277 6.758 7.578 13.107 13.107 18.227 5.325 5.12 11.674 9.216 18.637 12.083 7.373 2.867 15.36 4.506 23.347 4.301 8.397 0.205 16.794-1.024 24.781-3.686 6.758-2.253 13.107-5.939 18.432-10.65 5.12-4.71 9.011-10.445 11.469-16.794 2.662-7.168 3.891-14.541 3.891-22.118 0-5.53-1.024-11.059-3.072-16.179-2.253-5.325-4.915-10.65-8.397-15.36-3.686-5.325-7.782-10.24-12.083-15.155-4.506-5.12-9.216-10.24-13.926-15.77l-39.731-44.032h80.077v-27.238h-122.675v20.48l54.477 60.416c4.71 5.12 9.216 10.035 13.517 14.746s7.782 9.216 11.059 13.312c2.867 3.891 5.53 7.987 7.578 12.288 1.843 3.686 2.662 7.987 2.662 12.288v0zM148.070 121.549h10.65c4.096 0 8.192 0.614 12.083 1.638 3.686 1.024 6.963 2.662 9.83 4.915 2.662 2.253 4.915 5.12 6.349 8.397 1.638 3.686 2.458 7.578 2.253 11.674 0.205 6.963-2.458 13.722-7.373 18.637-4.915 5.12-11.878 7.782-20.89 7.782-9.626 0-17.203-2.867-22.323-8.397-5.325-5.53-8.192-12.902-8.602-20.685h-30.72c1.024 7.782 3.072 15.155 6.554 22.323 3.277 6.554 7.578 12.698 12.902 17.613 5.325 5.12 11.674 9.011 18.637 11.674 7.373 2.867 15.36 4.301 23.347 4.301 8.192 0.205 16.589-1.229 24.371-3.891 6.758-2.253 12.902-5.939 18.022-10.65 4.915-4.506 8.806-10.24 11.264-16.384 2.662-6.554 4.096-13.517 3.891-20.685 0-4.71-0.614-9.216-1.638-13.722-1.024-4.096-2.662-8.192-4.915-11.878-2.048-3.482-4.71-6.554-7.782-9.421-3.072-2.662-6.349-4.915-9.83-6.554 4.506-1.638 8.602-4.096 12.288-7.373 3.277-2.867 6.144-6.349 8.602-10.035 2.253-3.686 4.096-7.578 5.12-11.878 1.024-4.096 1.638-8.192 1.638-12.493 0-7.578-1.434-14.95-4.301-21.914-2.662-6.554-6.758-12.698-12.083-17.613-5.53-5.12-12.083-9.011-19.046-11.674-8.192-3.072-16.794-4.506-25.6-4.301-8.806 0-17.613 1.229-25.805 4.301-7.578 2.662-14.336 6.554-20.275 11.878-5.734 5.12-10.445 11.469-13.722 18.432-3.482 7.373-5.53 15.36-5.939 23.552h30.106c0.614-8.602 4.301-16.589 10.445-22.733 5.939-5.734 14.131-8.602 24.986-8.602 9.421 0 16.998 2.662 22.938 7.782 5.939 5.325 9.216 12.902 8.806 20.89 0 4.096-0.819 7.987-2.458 11.878-1.638 3.482-3.891 6.758-6.963 9.216-3.072 2.662-6.758 4.506-10.65 5.734-4.301 1.229-8.806 2.048-13.312 1.843h-11.469v26.419zM974.029 825.446h-690.176v-61.44h690.176v61.44zM974.029 481.997h-690.176v-61.44h690.176v61.44zM974.029 137.114h-690.176v-61.44h690.176v61.44z" />
<glyph unicode="&#xe2b3;" glyph-name="text" data-tags="text" horiz-adv-x="859" d="M810.47 908.8l10.24-216.064h-25.805c-4.915 38.093-11.878 65.331-20.48 81.51-14.131 26.214-32.768 45.67-56.115 58.163s-54.067 18.637-92.16 18.637h-129.638v-704.102c0-56.73 6.144-91.955 18.432-106.086 17.203-19.046 43.827-28.467 79.462-28.467h31.949v-25.19h-390.758v25.19h32.563c38.912 0 66.56 11.878 82.944 35.43 10.035 14.541 14.95 47.514 14.95 99.328v703.898h-110.797c-43.008 0-73.728-3.072-91.75-9.626-23.552-8.602-43.827-24.986-60.621-49.562s-26.829-57.549-29.901-99.123h-25.6l10.854 216.064h752.23z" />
<glyph unicode="&#xe2ca;" glyph-name="gauge" data-tags="gauge" horiz-adv-x="1015" d="M712.215 779.92l-257.289-225.775 55.149-57.4 224.199 260.89zM594.263 798.829h-1.576c-22.626 0-40.968-18.342-40.968-40.968s18.342-40.968 40.968-40.968c22.626 0 40.968 18.342 40.968 40.968v0.833c0 0.022 0 0.047 0 0.073 0 21.891-17.556 39.682-39.357 40.062zM711.314 675.699h-1.576c-22.626 0-40.968-18.342-40.968-40.968s18.342-40.968 40.968-40.968c22.626 0 40.968 18.342 40.968 40.968v0.833c0 0.022 0 0.047 0 0.073 0 21.891-17.556 39.682-39.357 40.062zM712.215 779.92l-257.289-225.775 55.149-57.4 224.199 260.89zM592.687 716.893c22.59 0.089 40.879 18.378 40.968 40.96v0.841c0 0.022 0 0.047 0 0.073 0 21.891-17.556 39.682-39.357 40.062h-1.611c-22.626 0-40.968-18.342-40.968-40.968s18.342-40.968 40.968-40.968zM469.783 755.159v0.833c0 0.022 0 0.047 0 0.073 0 21.891-17.556 39.682-39.357 40.062h-1.611c-22.626 0-40.968-18.342-40.968-40.968s18.342-40.968 40.968-40.968c22.626 0 40.968 18.342 40.968 40.968zM307.261 675.699h-1.576c-22.626 0-40.968-18.342-40.968-40.968s18.342-40.968 40.968-40.968c22.626 0 40.968 18.342 40.968 40.968v0.833c0 0.022 0 0.047 0 0.073 0 21.891-17.556 39.682-39.357 40.062zM711.314 675.699h-1.576c-22.626 0-40.968-18.342-40.968-40.968s18.342-40.968 40.968-40.968c22.626 0 40.968 18.342 40.968 40.968v0.833c0 0.022 0 0.047 0 0.073 0 21.891-17.556 39.682-39.357 40.062zM712.215 779.92l-257.289-225.775 55.149-57.4 224.199 260.89zM592.687 716.893c22.59 0.089 40.879 18.378 40.968 40.96v0.841c0 0.022 0 0.047 0 0.073 0 21.891-17.556 39.682-39.357 40.062h-1.611c-22.626 0-40.968-18.342-40.968-40.968s18.342-40.968 40.968-40.968zM469.783 755.159v0.833c0 0.022 0 0.047 0 0.073 0 21.891-17.556 39.682-39.357 40.062h-1.611c-22.626 0-40.968-18.342-40.968-40.968s18.342-40.968 40.968-40.968c22.626 0 40.968 18.342 40.968 40.968zM307.261 675.699h-1.576c-22.626 0-40.968-18.342-40.968-40.968s18.342-40.968 40.968-40.968c22.626 0 40.968 18.342 40.968 40.968v0.833c0 0.022 0 0.047 0 0.073 0 21.891-17.556 39.682-39.357 40.062zM430.39 796.128h-1.576c-22.626 0-40.968-18.342-40.968-40.968s18.342-40.968 40.968-40.968c22.626 0 40.968 18.342 40.968 40.968v0.833c0 0.022 0 0.047 0 0.073 0 21.891-17.556 39.682-39.357 40.062zM711.314 675.699h-1.576c-22.626 0-40.968-18.342-40.968-40.968s18.342-40.968 40.968-40.968c22.626 0 40.968 18.342 40.968 40.968v0.833c0 0.022 0 0.047 0 0.073 0 21.891-17.556 39.682-39.357 40.062zM307.261 675.699h-1.576c-22.626 0-40.968-18.342-40.968-40.968s18.342-40.968 40.968-40.968c22.626 0 40.968 18.342 40.968 40.968v0.833c0 0.022 0 0.047 0 0.073 0 21.891-17.556 39.682-39.357 40.062zM795.457 841.575c-73.182 73.173-174.278 118.43-285.944 118.43-0.752 0-1.503-0.002-2.254-0.006-224.084-0.675-405.289-183.23-404.613-407.43 0.54-179.899 118.177-332.112 280.474-384.92v-224.874h72.032v208.6c16.126-2.251 34.757-3.536 53.687-3.536 0.435 0 0.87 0.001 1.305 0.002 18.785 0.042 37.288 1.366 55.408 3.889l-2.127-208.955h72.032v225.235c163.601 54.981 279.357 206.938 279.357 385.931 0 112.367-45.62 214.080-119.349 287.626zM750.707 336.474c-66.266 52.906-151.256 84.895-243.717 84.895-1.764 0-3.526-0.012-5.285-0.035-89.409-0.327-172.082-30.031-238.704-79.979-48.167 56.249-78.219 129.709-78.219 210.189 0 1.389 0.009 2.777 0.027 4.162 1.646 177.552 146.133 321.020 324.128 321.020 1.034 0 2.066-0.005 3.097-0.014 178.796-1.575 322.635-148.339 321.059-327.293-0.755-82.018-31.881-156.624-82.655-213.248z" />
<glyph unicode="&#xe2f1;" glyph-name="quicklaunch" data-tags="quicklaunch" d="M52.634 907.776h229.171v-229.786h-229.171v229.786zM398.541 907.776h229.171v-229.786h-229.171v229.786zM744.448 907.776h229.171v-229.786h-229.171v229.786zM52.019 215.962h229.171v-229.786h-229.171v229.786zM397.926 215.962h229.171v-229.786h-229.171v229.786zM743.834 215.962h229.171v-229.786h-229.171v229.786zM52.019 562.688h229.171v-229.786h-229.171v229.786zM397.926 562.688h229.171v-229.786h-229.171v229.786zM743.834 562.688h229.171v-229.786h-229.171v229.786z" />
<glyph unicode="&#xe2f4;" glyph-name="group" data-tags="group" d="M819.2 353.792c0-70.692-57.308-128-128-128s-128 57.308-128 128c0 70.692 57.308 128 128 128s128-57.308 128-128zM460.8 353.792c0-70.692-57.308-128-128-128s-128 57.308-128 128c0 70.692 57.308 128 128 128s128-57.308 128-128zM641.024 634.368c0-70.692-57.308-128-128-128s-128 57.308-128 128c0 70.692 57.308 128 128 128s128-57.308 128-128zM821.862 757.862c-82.739 82.739-192.717 128.41-309.862 128.41s-227.123-45.67-309.862-128.41-128.41-192.717-128.41-309.862 45.67-227.123 128.41-309.862 192.922-128.41 309.862-128.41c117.146 0 227.123 45.67 309.862 128.41s128.41 192.717 128.41 309.862-45.67 227.123-128.41 309.862zM512 71.168c-207.872 0-376.832 168.96-376.832 376.832s168.96 376.832 376.832 376.832 376.832-168.96 376.832-376.832-168.96-376.832-376.832-376.832z" />
<glyph unicode="&#xe305;" glyph-name="heartbeat" data-tags="heartbeat" d="M759.173 404.705l-11.121 24.863-12.677-24.371-234.004-0.389-76.452-163.226-46.203 187.986-292.311 9.462 15.995-39.199c29.635-63.959 70.205-120.115 114.463-168.1 5.468-6.144 11.121-11.899 16.773-17.736 11.305-11.51 22.528-22.528 34.12-33.157 5.652-5.263 11.51-10.24 17.162-15.401 14.336-12.472 28.672-24.371 42.906-35.287 5.652-4.485 11.305-8.581 16.773-12.861 11.121-8.376 22.036-15.995 32.563-23.409 7.987-5.468 15.79-10.732 23.204-15.606l7.414-4.874c27.116-17.162 50.893-30.72 69.038-40.366l4.874-2.54c6.144-3.318 11.694-6.144 16.179-8.376l3.318-1.556 5.468-2.54c1.955-1.042 4.397-2.157 6.905-3.142l0.509-0.176 3.502 1.556 4.096 2.048c4.874 2.335 12.083 5.857 21.053 10.527 4.485 2.335 9.564 4.874 14.828 7.803l5.468 2.929c89.313 49.152 277.299 171.213 364.851 364.851h-168.899v0.389zM796.426 866.673l-6.431 2.335c-4.28 1.556-8.581 2.929-13.066 4.28-24.882 7.552-53.479 11.899-83.092 11.899-0.2 0-0.4 0-0.6-0.001h0.031c-0.444 0.002-0.97 0.004-1.496 0.004-67.227 0-129.126-22.811-178.379-61.115l0.655 0.49c-48.762 37.952-110.874 60.847-178.334 60.847-0.312 0-0.623 0-0.935-0.001h0.048c-155.402-0.020-281.58-118.968-281.58-265.994 0-0.2 0-0.436 0-0.672 0-49.119 6.91-96.623 19.812-141.595l-0.888 3.617h278.036l44.851 176.865 53.862-252.539 43.684 127.14 17.94-78.787h193.638l47.78 121.303 40.612-121.283 152.699-4.485 4.69 12.288c15.779 47.070 24.883 101.27 24.883 157.597 0 0.121 0 0.242 0 0.363v-0.019c0 112.333-73.912 208.466-178.422 247.46z" />
<glyph unicode="&#xe306;" glyph-name="help-circle" data-tags="help negative" d="M516.096 915.968c-254.566 0-461.005-206.438-461.005-461.005s206.438-460.8 461.005-460.8 461.005 206.438 461.005 461.005-206.438 460.8-461.005 460.8zM525.926 115.2c-47.718 0-85.811 37.069-85.811 83.763 0 48.947 37.888 84.787 85.811 84.787s85.811-36.045 85.811-84.787c0-46.694-38.093-83.763-85.811-83.763v0zM635.699 415.232c-32.563-34.816-39.322-56.525-39.322-77.005h-133.53c3.277 52.224 16.179 78.234 60.826 130.253 38.093 43.418 81.51 77.005 81.51 128.205 0 47.718-31.539 80.486-83.763 80.486-55.501 0-84.787-41.37-88.064-92.57h-143.565c13.107 124.109 99.942 216.269 234.906 216.269 135.782 0 220.57-75.981 220.57-196.813 0.205-80.896-60.621-135.373-109.568-188.826z" />
<glyph unicode="&#xe307;" glyph-name="help" data-tags="help positive" d="M661.299 396.39c-43.827-46.899-52.634-75.981-52.634-103.629h-179.405c4.301 69.837 21.709 105.062 81.715 175.104 51.2 58.163 109.363 103.629 109.363 172.032 0 64.102-42.394 107.93-112.435 107.93-74.547 0-113.664-55.706-118.17-124.109h-192.717c17.818 166.707 133.939 290.202 315.392 290.202 182.272 0 296.141-101.99 296.141-264.192 0.205-108.339-81.51-181.453-147.251-253.338zM514.048 219.853c64.102 0 115.302-48.128 115.302-113.664 0-62.669-51.2-112.435-115.302-112.435s-115.302 49.562-115.302 112.435c0 65.536 50.586 113.664 115.302 113.664z" />
<glyph unicode="&#xe30c;" glyph-name="run-hours" data-tags="run hours, recent" horiz-adv-x="1080" d="M248.832 306.688l82.739 143.155h-107.725c0 192.922 120.013 349.798 312.934 349.798s350.003-157.082 350.003-350.003-157.082-349.798-350.003-349.798c-83.354-0.205-164.045 29.696-227.328 84.173l-61.645-61.645c79.667-70.656 182.477-109.773 288.973-109.568 240.845 0 437.043 196.198 437.043 437.043s-195.994 436.838-437.043 436.838-399.974-196.198-399.974-437.043h-84.582l139.674-241.869 56.934 98.918zM511.795 720.794v-331.571h179.2v57.958h-121.037v273.613z" />
<glyph unicode="&#xe30e;" glyph-name="home" data-tags="home" horiz-adv-x="1138" d="M562.048 864.768v0 0 0l-460.8-340.992h119.808v-488.448h253.338v299.622h184.32v-299.622h253.542v488.448h110.592z" />
<glyph unicode="&#xe332;" glyph-name="import" data-tags="import" horiz-adv-x="705" d="M259.84 811.52h311.296v-722.944h-311.296v-98.304h409.6v919.552h-409.6v-98.304zM317.184 268.8v131.072h-280.576v98.304h280.576v131.072l180.224-180.224-180.224-180.224z" />
<glyph unicode="&#xe337;" glyph-name="information" data-tags="information" d="M514.048 910.438c-254.566 0-460.8-206.234-460.8-460.8s206.234-460.8 460.8-460.8 460.8 206.234 460.8 460.8-206.234 460.8-460.8 460.8zM574.874 123.597h-124.723v450.15h124.723v-450.15zM513.024 632.115c-40.346 0-74.752 29.286-74.752 71.475 0 41.37 34.406 71.475 74.752 71.475 39.322 0 73.523-30.31 73.523-71.475 0-42.394-34.202-71.475-73.523-71.475v0z" />
<glyph unicode="&#xe34a;" glyph-name="keyboard" data-tags="keyboard" d="M51.2 713.626v-549.274h921.6v549.274h-921.6zM597.197 630.682h65.741v-88.474h-65.741v88.474zM597.197 449.843h65.741v-88.474h-65.741v88.474zM480.256 630.682h65.741v-88.474h-65.741v88.474zM480.256 449.843h65.741v-88.474h-65.741v88.474zM363.315 630.682h65.741v-88.474h-65.741v88.474zM363.315 449.843h65.741v-88.474h-65.741v88.474zM195.174 361.37h-63.898v88.474h64.102v-88.474zM195.174 542.208h-63.898v88.474h64.102v-88.474zM312.115 361.37h-65.741v88.474h65.741v-88.474zM312.115 542.208h-65.741v88.474h65.741v-88.474zM691.2 225.382h-357.171v71.68h357.171v-71.68zM779.878 361.37h-65.741v88.474h65.741v-88.474zM779.878 542.208h-65.741v88.474h65.741v-88.474zM896 361.37h-65.126v88.474h65.126v-88.474zM896 542.208h-65.126v88.474h65.126v-88.474z" />
<glyph unicode="&#xe364;" glyph-name="layers" data-tags="layers" d="M971.776 464.589l-224.051 90.522 226.714 104.038-457.523 184.73-461.824-184.73 226.304-104.038-228.557-91.75 225.28-104.038-223.232-89.293 461.619-213.811 457.523 213.811-223.437 90.112 221.184 104.448zM516.506 523.366l-286.31 132.71 286.31 114.688 283.443-114.483-283.443-132.915zM227.738 459.469l138.854 56.32 148.48-69.427 144.589 67.584 136.192-54.886-282.214-131.891-285.901 132.301zM799.744 266.138l-283.648-132.506-286.31 132.71 134.758 53.658 149.914-69.427 150.118 69.427 135.168-53.862z" />
<glyph unicode="&#xe367;" glyph-name="eco-efficiency" data-tags="eco efficiency, eco mode" horiz-adv-x="1078" d="M847.872 184.627c83.558 575.078-356.557 701.235-796.672 701.235 0-440.32 126.566-880.64 702.259-796.467l-131.686 131.686h-241.664v67.584h174.080l-353.894 353.894 48.128 48.128 190.874-190.874v184.115h67.584v-251.699l419.021-419.021-2.867-2.867 0.205-0.205 49.562 49.562-124.928 124.928z" />
<glyph unicode="&#xe372;" glyph-name="tips" data-tags="tips" d="M665.805 100.659h-307.405v54.477h307.405v-54.477zM665.805 66.867h-307.405v-52.019h43.827c1.434-14.95 18.432-26.829 39.117-26.829h141.517c20.685 0 37.683 11.878 39.117 26.829h43.827v52.019zM514.867 906.342c-183.91 1.229-333.414-127.386-333.414-286.31 0-91.955 44.032-159.539 114.074-231.014l59.597-197.632h315.392l58.982 197.632c69.632 62.464 114.893 140.493 114.074 233.677-1.843 155.648-148.89 282.624-328.704 283.648zM707.174 459.264l-62.669-16.998-9.626-52.634h-0.205l-36.25-198.246h-60.826l38.093 208.896-51.814 9.626-71.885-19.251 38.298-199.066h-61.030l-35.226 183.501-20.48-5.53-16.998 63.283 333.619 89.907 16.998-63.488zM691.405 575.795l-343.45-92.57-15.974 58.982 343.45 92.57 15.974-58.982zM669.082 680.858l-343.45-92.57-15.974 58.982 343.654 92.57 15.77-58.982zM621.568 781.414l-295.526-79.667-15.974 58.982 295.526 79.667 15.974-58.982z" />
<glyph unicode="&#xe37c;" glyph-name="locked" data-tags="locked" d="M117.093 444.086v-506.951h790.38v506.951h-127.305v244.398c0 149.39-121.105 270.495-270.495 270.495s-270.495-121.105-270.495-270.495v0-244.625h-122.086v0.227zM343.111 688.257v0c0.638 91.733 74.831 165.925 166.502 166.563 0.646 0.008 1.337 0.012 2.029 0.012 90.087 0 163.271-72.366 164.593-162.139l0.001-4.209v-244.625h-333.126v244.398zM583.198 68.751h-126.851l40.166 115.165c-25.438 10.996-43.458 34.773-46.044 63.015 0.617 38.137 31.124 68.644 68.903 69.282 0.794 0.030 1.655 0.046 2.521 0.046 36.032 0 65.377-28.633 66.522-64.387l0.003-4.871c-0.169-29.377-19.203-54.264-45.593-63.174z" />
<glyph unicode="&#xe37f;" glyph-name="unlocked" data-tags="unlocked" d="M505.651 463.155v179.61c0 125.542-101.786 227.328-227.328 227.328s-227.328-101.786-227.328-227.328v-160.973h87.245v160.563c0.41 77.005 62.874 139.469 139.878 139.878 76.186 1.024 138.854-60.006 139.878-136.397v-164.454h-141.517v-455.68h696.32v455.885h-467.149v-18.432zM686.694 298.086c-0.205-25.19-16.384-47.718-40.346-55.501l35.43-100.762h-111.002l35.226 100.762c-22.528 9.626-38.093 30.925-40.346 55.501 0.614 33.178 27.238 59.802 60.416 60.416 32.154 1.229 59.187-23.962 60.416-56.32 0 0 0 0 0 0 0-1.229 0.205-2.662 0.205-4.096z" />
<glyph unicode="&#xe381;" glyph-name="login" data-tags="login" d="M558.748 534.913l-180.224 180.224v-132.096h-301.072v-98.304h301.072v-130.050zM467.548 238.621h152.107v501.985l163.633 84.191h-315.74v-74.351h-83.741v158.093h562.741v-747.514h-1.196l-325.698-173.826v173.826h-235.848v159.119h83.741z" />
<glyph unicode="&#xe383;" glyph-name="logout" data-tags="logout" d="M946.096 534.784l-180.224 180.224v-132.096h-301.072v-98.304h301.072v-130.048zM556.902 238.621h-152.107v501.985l-163.631 84.191h315.738v-197.327h83.741v281.070h-562.739v-747.514h1.196l325.695-173.826v173.826h235.848v277.996h-83.741z" />
<glyph unicode="&#xe38a;" glyph-name="search" data-tags="search" horiz-adv-x="1021" d="M651.264 403.149c98.304 151.142 55.296 353.28-95.642 451.584-148.48 96.461-346.931 56.934-447.078-89.088-100.147-149.504-59.597-352.461 90.112-452.608 108.544-72.704 250.061-73.523 359.424-2.048l321.946-321.741 92.57 92.57-321.331 321.331zM194.97 399.667c-102.195 102.195-102.195 267.674 0 369.869s267.674 102.195 369.869 0 102.195-267.674 0-369.869c0 0 0 0 0 0-102.195-102.195-267.674-102.195-369.869 0z" />
<glyph unicode="&#xe38f;" glyph-name="locator" data-tags="locator" horiz-adv-x="1021" d="M509.254 908.139c-197.885 0-358.146-160.261-358.146-358.146s358.146-557.048 358.146-557.048 358.146 359.366 358.146 557.048c0 197.885-160.261 358.146-358.146 358.146zM509.254 430.611c-65.894 0-119.382 53.488-119.382 119.382s53.488 119.382 119.382 119.382 119.382-53.488 119.382-119.382-53.488-119.382-119.382-119.382z" />
<glyph unicode="&#xe3a0;" glyph-name="sms" data-tags="sms, chat" horiz-adv-x="1021" d="M536.994 824.123c-193.136 0-349.614-156.478-349.614-349.614 0-57.865 14.088-112.398 38.93-160.417l-96.341-158.599 171.929 60.137c62.107-56.35 144.511-90.736 235.096-90.736 193.136 0 349.614 156.478 349.614 349.614s-156.478 349.614-349.614 349.614zM380.667 399.83c-32.568 0-55.593 16.208-60.592 43.929h31.356c4.090-12.876 14.693-18.783 29.084-18.783 14.693 0 24.54 6.665 24.54 18.329 0 8.786-5.302 13.482-17.875 16.36l-26.206 5.908c-20.904 4.696-37.112 15.905-37.112 39.991 0 26.357 21.813 44.989 52.563 44.989 33.325 0 52.563-17.572 57.259-42.263h-30.144c-3.333 9.695-11.664 17.42-26.812 17.42-13.785 0-23.025-6.665-23.025-17.117 0-8.331 5.453-13.33 16.36-15.905l26.66-6.211c23.782-5.453 38.324-19.086 38.324-41.202-0.151-28.327-23.479-45.444-54.381-45.444zM609.553 402.253h-28.781v95.432l-35.446-95.432h-20.753l-36.204 95.432v-95.432h-28.478v146.026h36.204l38.93-103.006 38.779 103.006h35.749v-146.026zM692.715 399.83c-32.568 0-55.593 16.208-60.592 43.929h31.356c4.090-12.876 14.693-18.783 29.084-18.783 14.693 0 24.54 6.665 24.54 18.329 0 8.786-5.302 13.482-17.875 16.36l-26.206 5.908c-20.904 4.696-37.112 15.905-37.112 39.991 0 26.357 21.813 44.989 52.563 44.989 33.325 0 52.563-17.572 57.259-42.263h-30.144c-3.333 9.695-11.664 17.42-26.812 17.42-13.785 0-23.025-6.665-23.025-17.117 0-8.331 5.453-13.33 16.36-15.905l26.66-6.211c23.782-5.453 38.324-19.086 38.324-41.202-0.151-28.327-23.479-45.444-54.381-45.444z" />
<glyph unicode="&#xe3ad;" glyph-name="podcast" data-tags="podcast" horiz-adv-x="1217" d="M611.891 352.051c-78.643 0-142.336 63.898-142.541 142.336v191.488c0 78.643 63.898 142.336 142.541 142.336s142.336-63.693 142.336-142.336v-191.488c0-78.643-63.898-142.336-142.336-142.336zM640.563 264.806c112.64 18.842 192.307 111.411 192.307 227.942h-38.912c0-108.544-82.125-183.091-183.091-183.091s-183.091 74.547-183.091 183.091h-38.912c0-116.736 79.667-208.077 190.259-227.738v-130.458h-145.203v-81.92h353.894v81.92h-147.251v130.253zM149.453 606.003c2.048-77.619 33.792-151.347 88.678-206.234l33.382 33.382c-0.205-0.205-17.613 19.661-19.046 21.709-80.282 100.147-73.318 244.531 15.974 336.896 0.41 0.41 3.277 3.277 3.072 3.277l-33.382 33.382c-58.982-58.778-91.136-139.264-88.678-222.413zM259.226 534.938c10.445-25.6 26.010-48.947 45.67-68.403l33.382 33.382c0 0-7.782 8.602-8.602 9.626-3.482 4.096-6.554 8.192-9.626 12.493-42.394 60.826-37.888 142.746 10.854 198.451 1.638 1.843 3.482 3.891 5.325 5.734 0.41 0.41 2.662 1.843 2.048 2.662l-3.686 3.686-29.696 29.082c-59.392-59.597-77.414-148.89-45.67-226.714v0zM1070.643 606.003c-2.048-77.619-33.792-151.347-88.678-206.234l-33.382 33.382c0.205-0.205 17.613 19.661 19.251 21.709 80.077 100.557 73.114 244.736-16.179 337.101-0.205 0.41-3.277 3.277-3.072 3.277l33.382 33.382c58.982-58.982 90.931-139.469 88.678-222.618v0zM960.87 534.938c-10.445-25.6-26.010-48.947-45.67-68.403l-23.757 23.757-9.421 9.626c0 0 7.782 8.602 8.602 9.626 3.482 4.096 6.554 8.192 9.626 12.493 42.394 60.826 37.888 142.541-10.854 198.246-1.638 1.843-3.482 3.891-5.12 5.734-0.41 0.41-2.662 1.843-2.048 2.662l3.686 3.686 29.491 29.696c59.187-59.802 77.21-149.299 45.466-227.123v0z" />
<glyph unicode="&#xe3b3;" glyph-name="menu" data-tags="menu" d="M51.2 875.622h921.6v-164.25h-921.6v164.25zM51.2 530.944h921.6v-164.25h-921.6v164.25zM51.2 184.627h921.6v-164.25h-921.6v164.25z" />
<glyph unicode="&#xe3bc;" glyph-name="decrement" data-tags="decrement" d="M924.266 361.712h-806.946v156.578h806.719v-156.578h0.227z" />
<glyph unicode="&#xe3f2;" glyph-name="notification-settings" data-tags="notification settings" horiz-adv-x="1054" d="M637.338 574.566c0-65.331-52.838-118.17-118.17-118.17s-118.17 52.838-118.17 118.17c0 65.331 52.838 118.17 118.17 118.17v0 0c65.331-0.205 118.17-53.043 118.17-118.17zM155.648 253.85h-102.4v641.024h921.6v-641.024h-561.766l-255.59-253.952-1.434 253.952zM772.096 612.25h-78.643c-4.506 22.323-13.107 43.622-25.395 62.669l54.886 55.091-52.634 52.429-54.477-54.477c-19.046 12.698-40.55 21.709-63.078 26.419v77.005h-73.728v-77.005c-22.528-4.71-43.827-13.722-63.078-26.419l-54.682 54.477-52.019-52.429 55.091-55.091c-12.288-19.046-20.89-40.346-25.395-62.669h-78.848v-73.728h79.667c4.71-21.709 13.517-42.394 25.805-60.826l-56.32-56.525 52.634-52.429 56.934 56.934c18.432-12.083 38.912-20.48 60.416-24.781v-81.101h73.728v81.101c21.504 4.506 42.189 12.902 60.621 24.781l57.139-56.934 52.429 52.634-56.525 56.525c12.493 18.432 21.299 39.117 25.805 60.826h79.667v73.523z" />
<glyph unicode="&#xe3f3;" glyph-name="monitoring" data-tags="monitoring, software" horiz-adv-x="1085" d="M69.248 220.262h921.6v621.978h-921.6v-621.978zM898.688 312.422h-737.28v437.658h737.28v-437.658zM649.651 169.677h-243.302l-111.206-110.797h465.306l-110.797 110.797zM441.165 341.914l72.294 154.214 221.184 0.41 12.083 23.142 10.445-23.347h95.437v46.080h-63.898l-38.298 114.688-45.056-114.688h-183.091l-16.998 74.547-41.37-120.218-50.79 238.592-42.394-167.117h-163.226v-48.538h190.054l43.622-177.766z" />
<glyph unicode="&#xe426;" glyph-name="colorize" data-tags="colorize" horiz-adv-x="1027" d="M204.8 65.434c0-42.394-34.406-76.8-76.8-76.8s-76.8 34.406-76.8 76.8c0 42.394 76.8 332.8 76.8 332.8s76.8-290.202 76.8-332.8zM972.8 375.91l-384-384.205-460.8 460.8 226.304 226.509v228.147h59.392v-168.96l98.304 98.304 460.8-460.595zM819.2 448.614l-307.2 307.2-98.304-98.304v-153.6h-59.392v94.208l-149.504-149.504h614.4z" />
<glyph unicode="&#xe42a;" glyph-name="graphical" data-tags="graphical" d="M335.462 110.285h-309.043l174.285 210.33 134.758-210.33zM1008.026 116.838h-528.794l-133.325 207.462 297.984 359.629 364.134-567.091zM334.643 676.352c0-55.91-45.466-101.376-101.376-101.376s-101.376 45.466-101.376 101.376 45.261 101.376 101.376 101.376h0.205c55.91-0.205 100.966-45.466 101.171-101.376z" />
<glyph unicode="&#xe432;" glyph-name="pause" data-tags="pause" d="M130.867 908.8h248.013v-921.6h-248.013v921.6zM644.915 908.8h248.013v-921.6h-248.013v921.6z" />
<glyph unicode="&#xe439;" glyph-name="draw" data-tags="draw" horiz-adv-x="1017" d="M655.96 871.129l88.874 88.874 272.248-272.248-88.874-88.874-272.248 272.248zM193.872 482.842s-55.457-368.88-193.872-507.295l7.728-7.728 354.788 354.788c-2.312 5.269-3.658 11.41-3.658 17.865 0 25.105 20.352 45.457 45.457 45.457s45.457-20.352 45.457-45.457c0-25.105-20.352-45.457-45.457-45.457-6.395 0-12.481 1.321-18.002 3.704l-354.494-354.993 7.728-7.728c138.415 138.415 507.295 193.872 507.295 193.872 171.826 319.332 313.196 450.020 313.196 450.020l-215.919 215.919c-0.227 0-130.915-141.143-450.247-312.968z" />
<glyph unicode="&#xe43a;" glyph-name="edit" data-tags="edit" horiz-adv-x="1023" d="M233.314 284.225l422.428 422.428 114.349-114.349-422.428-422.428-114.349 114.349zM681.807 732.664l57.175 57.175 114.349-114.349-57.175-57.175-114.349 114.349zM324.949 146.11l-154.283-40.050 40.050 154.131z" />
<glyph unicode="&#xe44b;" glyph-name="phone-contact" data-tags="phone contact" d="M510.771 801.894c197.837 0 357.786-158.925 357.786-356.966l41.574-3.482c0 223.027-180.838 403.661-403.866 403.661l3.686-43.622zM516.71 737.792l2.048-44.442c131.277 0 237.568-106.291 237.568-237.568 0-0.205 0-0.205 0-0.41l48.128-4.301c0 158.515-128.819 286.72-287.13 286.72h-0.614zM977.715 178.893l-32.563 23.552-17.613 12.493-209.101 150.528-39.731-69.427-0.819-1.229c-14.95-23.552-32.358-60.006-49.562-101.171-54.886 8.602-136.602 55.91-225.894 145.408s-129.434 168.346-137.83 223.232c24.986 10.445 48.947 23.142 71.885 37.888v0l36.864 23.347c5.939 3.482 11.469 6.554 22.733 14.336l0.41 0.41 29.286 18.637-16.589 23.962c-0.819 1.843-2.662 3.686-2.662 5.325v0.205l-140.288 194.765-19.661 27.853-26.214-18.842c-0.819-0.41-1.434-0.819-2.048-1.434-19.661-13.517-38.912-27.238-57.139-41.37v0 0c-67.584-52.838-118.374-110.592-109.773-176.333 13.107-99.533 108.339-276.070 257.843-425.779 139.264-139.264 336.282-245.965 425.574-257.434 65.741-9.011 123.29 41.574 176.128 109.363l1.024-0.614 65.741 82.33z" />
<glyph unicode="&#xe45a;" glyph-name="pinned" data-tags="pinned" d="M704.512 809.267l-37.478-317.235c42.803-36.454 70.042-87.859 76.8-143.565h-460.8c6.758 56.115 34.611 107.725 77.824 144.384l-38.298 316.416c-55.296 24.576-96.87 59.802-116.941 100.557h615.834c-20.275-40.755-61.85-75.776-116.941-100.557zM512.614-9.114l74.957 357.786h-148.070l73.114-357.786z" />
<glyph unicode="&#xe45b;" glyph-name="unpinned" data-tags="unpinned" d="M973.005 140.39v615.834c-40.755-20.070-75.776-61.645-100.557-116.941l-316.416-38.298c-36.659 43.213-88.064 71.066-144.384 77.824v-156.467l-357.786-73.114 357.786-74.957v-156.467c55.706 6.758 107.11 34.202 143.565 76.8l317.235-37.274c24.781-55.296 59.802-96.87 100.557-116.941z" />
<glyph unicode="&#xe462;" glyph-name="play" data-tags="play" d="M115.098 910.848l798.106-460.8-798.106-460.8z" />
<glyph unicode="&#xe46e;" glyph-name="increment" data-tags="increment" d="M909.516 518.744h-339.707v339.48h-125.943v-339.48h-341.296v-127.759h341.296v-339.48h125.943v339.48h339.48v127.759h0.227z" />
<glyph unicode="&#xe46f;" glyph-name="increment-selected" data-tags="increment selected" d="M973.824-11.776h-921.6v921.6h921.6v-921.6zM876.134 508.006h-306.586v306.381h-113.664v-306.381h-308.019v-115.302h308.019v-306.381h113.664v306.381h306.381v115.302z" />
<glyph unicode="&#xe470;" glyph-name="add" data-tags="add" d="M515.072 911.872c-254.566 0-460.8-206.234-460.8-460.8s206.234-460.8 460.8-460.8 460.8 206.234 460.8 460.8-206.234 460.8-460.8 460.8zM771.072 397.824h-206.848v-206.848h-98.304v206.848h-208.896v98.304h208.896v208.896h98.304v-208.896h206.848v-98.304z" />
<glyph unicode="&#xe481;" glyph-name="power" data-tags="power" d="M432.947 904.704h147.456v-400.998h-147.456v400.998zM661.504 865.382v-106.086c120.422-56.73 202.342-178.586 202.342-319.693 0-195.174-158.106-353.69-353.485-353.69s-354.099 158.72-354.099 354.099c0 137.83 79.053 257.229 193.741 315.392v110.182c-174.285-63.693-298.803-231.219-298.803-427.827 0-251.29 203.981-454.656 454.861-454.656s454.246 203.571 454.246 454.656c0.41 197.018-123.29 364.339-298.803 427.622z" />
<glyph unicode="&#xe484;" glyph-name="presentation" data-tags="presentation" horiz-adv-x="1022" d="M971.776 272.282v637.542h-919.552v-637.542h431.104v-42.803l-241.459-241.254h84.378l157.082 157.082v-157.082h61.44v157.082l157.082-157.082h84.378l-241.459 241.254v42.803h427.008zM548.864 798.618c91.955 0 171.418-74.752 171.418-170.803h-171.418v170.803zM499.712 408.064c-94.822 0-171.827 75.776-171.827 170.803-0.41 94.618 75.981 171.418 170.598 171.827 0 0 0 0 0 0h1.229v-169.984h171.827c0.41-95.027-76.186-172.237-171.213-172.646h-0.614z" />
<glyph unicode="&#xe486;" glyph-name="print" data-tags="print" d="M52.224 629.248v-360.858h294.707v68.403h333.414v-68.403h293.274v360.858h-921.395zM883.507 506.982c-21.299 0-38.707 17.408-38.707 38.707s17.408 38.707 38.707 38.707c21.299 0 38.707-17.408 38.707-38.707v0c0-21.299-17.408-38.707-38.707-38.707v0 0zM282.624 909.824v-364.544h460.8v364.544h-460.8zM679.526 618.803h-333.619v227.328h333.414v-227.328zM283.648 410.522v-422.502h460.8v422.502h-460.8zM680.55 73.421h-333.619v263.373h333.414v-263.373zM615.014 158.618h-201.933v91.341h201.728l0.205-91.341z" />
<glyph unicode="&#xe48a;" glyph-name="oneline" data-tags="oneline" horiz-adv-x="1021" d="M205.41 577.652h-50.844v-254.22h50.844v126.093h128.127v50.844h-128.127zM815.539 323.432h54.912v176.531l-156.6 0.203v-50.641h101.688zM52.878 628.497h280.659v278.626h-280.659v-278.626zM103.722 856.278h178.971v-176.937h-178.971v176.937zM52.878-8.071h280.659v280.659h-280.659v-280.659zM103.722 221.744h178.971v-178.971h-178.971v178.971zM689.446 272.588v-280.659h280.659v280.659h-280.659zM919.261 42.773h-178.971v178.971h178.971v-178.971zM382.348 321.398h280.659v280.659h-280.659v-280.659zM433.192 551.214h178.971v-178.971h-178.971v178.971z" />
<glyph unicode="&#xe48b;" glyph-name="portfolio-devices" data-tags="portfolio devices, devices" d="M51.2 902.656v-921.6h428.646v921.6h-428.646zM178.995 187.904c-17.408 0-31.539 14.131-31.539 31.539s14.131 31.539 31.539 31.539 31.539-14.131 31.539-31.539v0c0-17.408-14.131-31.539-31.539-31.539zM262.554 37.786c-23.757 0-43.213 19.251-43.213 43.213 0 23.757 19.251 43.213 43.213 43.213 23.757 0 43.213-19.251 43.213-43.213 0-23.757-19.251-43.213-43.213-43.213v0zM233.882 219.238c0 17.408 14.131 31.539 31.539 31.539s31.539-14.131 31.539-31.539c0-17.408-14.131-31.539-31.539-31.539v0c-17.408 0-31.539 14.131-31.539 31.539v0zM357.786 187.904c-17.408 0-31.539 14.131-31.539 31.539s14.131 31.539 31.539 31.539c17.408 0 31.539-14.131 31.539-31.539v0c0-17.408-14.131-31.539-31.539-31.539zM393.216 366.899h-260.301v64.307h260.301v-64.307zM394.035 474.010h-260.301v64.307h260.506v-64.307h-0.205zM394.035 581.12h-260.301v64.307h260.506v-64.307h-0.205zM394.035 688.23h-260.301v64.307h260.506v-64.307h-0.205zM544.154 902.656v-921.6h428.646v921.6h-428.646zM671.949 187.904c-17.408 0-31.539 14.131-31.539 31.539s14.131 31.539 31.539 31.539 31.539-14.131 31.539-31.539v0c0-17.408-14.131-31.539-31.539-31.539zM755.507 37.786c-23.757 0-43.213 19.251-43.213 43.213 0 23.757 19.251 43.213 43.213 43.213s43.213-19.251 43.213-43.213c0-23.757-19.251-43.213-43.213-43.213v0 0zM726.835 219.238c0 17.408 14.131 31.539 31.539 31.539s31.539-14.131 31.539-31.539c0-17.408-14.131-31.539-31.539-31.539v0c-17.408 0-31.539 14.131-31.539 31.539v0zM850.534 187.904c-17.408 0-31.539 14.131-31.539 31.539s14.131 31.539 31.539 31.539c17.408 0 31.539-14.131 31.539-31.539v0c0.205-17.408-13.926-31.539-31.539-31.539v0zM886.17 366.899h-260.301v64.307h260.506v-64.307zM886.989 474.010h-260.301v64.307h260.506v-64.307zM886.989 581.12h-260.301v64.307h260.506v-64.307zM886.989 688.23h-260.301v64.307h260.506v-64.307z" />
<glyph unicode="&#xe4a0;" glyph-name="remote-sensor" data-tags="remote sensor, wireless sensor" d="M514.867 501.043c-73.728 0-143.565-33.178-190.054-90.317l47.923-47.923c58.778 78.438 170.189 94.413 248.627 35.43 13.107-9.83 24.781-21.504 34.816-34.406l47.923 47.923c-46.694 56.525-116.122 89.293-189.235 89.293zM514.867 710.963c-129.434 0.205-252.928-55.091-339.149-151.757l47.514-47.514c5.53 6.349 11.264 12.493 17.203 18.432 151.552 151.552 396.902 151.552 548.454 0v0c5.53-5.53 11.059-11.264 16.179-17.203l47.514 47.718c-86.016 95.846-208.896 150.528-337.715 150.323zM514.867 816.026c156.672 0 306.176-65.536 412.262-180.838l47.718 47.718c-5.12 5.53-10.24 10.854-15.565 16.179-245.555 245.555-643.482 245.555-889.037 0-5.734-5.734-11.469-11.674-16.998-17.818l47.718-47.718c106.291 116.326 256.41 182.477 413.901 182.477zM254.362 247.91h520.397v-258.662h-520.397v258.662z" />
<glyph unicode="&#xe4b0;" glyph-name="redo" data-tags="redo" d="M512 907.776c115.507 0.205 226.918-43.418 311.706-121.856l-82.944-82.944c-140.288 126.362-356.352 115.098-482.714-25.19s-115.098-356.352 25.19-482.714c62.874-56.525 144.384-87.859 228.762-87.859h2.048v-118.989h-2.048c-253.952 0-459.776 205.824-459.776 459.776s206.029 459.776 459.776 459.776zM887.194 849.613l-217.088-217.088 299.622-78.643-82.534 295.731z" />
<glyph unicode="&#xe4b2;" glyph-name="refresh" data-tags="refresh" d="M514.048 94.925v-106.701h-0.205c-254.157 0-459.981 206.029-459.981 459.981-0.205 115.507 43.418 226.918 121.856 311.706l-66.56 66.56 296.346 79.667-79.258-296.96-75.776 75.776c-130.867-144.384-120.013-367.821 24.371-498.688 64.922-58.778 149.504-91.546 237.158-91.546l2.048 0.205zM515.482 799.437c194.97 0 353.075-158.106 353.075-353.075 0-87.654-32.563-172.237-91.546-237.158l-75.776 75.776-79.258-296.96 296.346 79.667-66.355 66.765c78.438 84.787 122.061 196.198 121.856 311.706 0 253.952-206.029 459.981-459.981 459.981h-0.205v-106.701h1.843z" />
<glyph unicode="&#xe4bf;" glyph-name="pue-configuration" data-tags="pue configuration" d="M972.8 384.512v132.915h-140.698c-7.987 40.141-23.552 78.234-45.67 112.64l99.123 98.918-94.822 95.027-98.099-98.304c-34.406 22.938-72.909 39.117-113.459 47.718v137.421h-134.758v-137.421c-40.346-8.602-78.643-24.781-113.050-47.718l-98.099 98.304-94.618-94.822 99.123-99.123c-22.118-34.406-37.683-72.499-45.67-112.64h-140.902v-132.915h142.95c8.602-39.322 24.371-76.595 46.694-110.182l-101.786-102.195 94.822-95.027 102.4 102.605c33.178-21.504 69.837-36.659 108.544-44.851v-145.613h134.758v145.818c38.707 8.192 75.571 23.552 108.954 44.851l102.605-102.605 94.822 94.822-101.99 102.4c22.528 33.382 38.298 70.656 46.694 109.978h142.131zM304.742 448.614c-1.843 115.712 90.317 211.149 206.234 213.197 9.626 0.205 19.046-0.41 28.672-1.434l-165.069-198.246h119.398l-108.134-180.224-0.205 0.205c-51.2 40.141-80.896 101.581-80.896 166.502zM517.939 235.418c-46.285 0-91.341 15.155-128.205 43.008l-0.205-0.205-0.205 0.205 0.205 0.205 0.205-0.205 233.267 233.472h-109.363l122.47 113.869c97.894-65.126 124.314-197.427 59.187-295.322-39.526-59.392-106.086-95.027-177.357-95.027v0z" />
<glyph unicode="&#xe4c0;" glyph-name="projects" data-tags="projects" d="M973.619 677.786l-0.41-631.398h-920.781v745.882h343.245l115.712-114.688h229.376c34.406-14.336 57.344-74.547 57.344-106.086v-327.066c0-39.526-32.154-71.68-71.68-71.68s-71.68 32.154-71.68 71.68v266.65c0 15.77 12.902 28.672 28.672 28.672s28.672-12.902 28.672-28.672v-235.315h57.344v232.448c0 47.514-38.502 86.016-86.016 86.016s-86.016-38.502-86.016-86.016v-266.65c2.048-70.042 58.982-125.747 129.024-126.157 70.451-0.614 128.205 55.706 129.024 126.157v329.728c3.891 40.96-13.517 80.896-45.875 106.086l164.045 0.41z" />
<glyph unicode="&#xe4c1;" glyph-name="rack" data-tags="rack" d="M293.069 905.728v-915.456h438.067v915.456h-438.067zM648.192 299.52h-260.096v38.912h259.891v-38.912h0.205zM648.192 420.352h-260.096v38.912h259.891v-38.912h0.205zM648.192 541.184h-260.096v38.912h259.891v-38.912h0.205zM648.192 662.016h-260.096v38.912h259.891v-38.912h0.205zM648.192 782.848h-260.096v38.912h259.891v-38.912h0.205z" />
<glyph unicode="&#xe4c2;" glyph-name="process" data-tags="process" d="M139.469 617.779l65.331 287.334 63.693-83.763c53.453 42.803 248.013 107.11 432.538 16.384l-65.126-142.131c-70.861 30.106-158.31 58.778-271.77-0.614l57.344-75.571-282.010-1.638zM91.136 453.734l154.419 23.142c13.722-75.571 37.478-164.454 149.299-226.918l31.949 89.498 155.443-235.52-276.070-102.4 35.43 99.123c-65.126 21.299-225.28 148.89-250.47 353.075zM661.299 480.563l130.662 250.266 223.642-191.693-104.038-17.203c13.107-67.379-20.89-269.517-187.187-390.349l-95.232 123.904c59.392 48.538 125.952 112.64 126.157 240.64l-94.003-15.565z" />
<glyph unicode="&#xe4c3;" glyph-name="report" data-tags="report" horiz-adv-x="1019" d="M968.704 908.8h-687.104v-130.458h-228.352v-711.68h228.352v-79.462h687.104v715.571h2.048v203.981h-2.048v2.048zM281.6 702.771v-124.314h-126.362v-50.995h126.362v-101.99h-126.362v-50.995h126.362v-101.99h-126.362v-50.995h126.362v-106.086h-179.405v613.99h179.405v-26.624zM919.757 36.147h-589.21v30.515h2.048v636.109h587.162v-666.624zM381.542 322.048h101.99v-228.352h-101.99v228.352zM560.947 448.41h101.99v-354.714h-101.99v354.714zM738.304 550.4h101.99v-456.704h-101.99v456.704z" />
<glyph unicode="&#xe4c4;" glyph-name="rewind" data-tags="rewind" d="M972.8 185.651l-458.957 265.216 458.957 265.216zM510.157 180.941l-458.957 265.216 458.957 265.216z" />
<glyph unicode="&#xe4fc;" glyph-name="settings" data-tags="settings, preferences" d="M972.8 382.054v133.734h-141.107c-7.987 40.141-23.347 78.234-45.466 112.64l99.123 98.918-94.822 95.027-98.304-98.304c-34.202 22.938-72.704 39.117-113.254 47.514v138.24h-133.939v-138.035c-40.55-8.602-79.053-24.576-113.459-47.514l-98.304 98.099-94.618-94.822 99.123-98.918c-22.118-34.406-37.683-72.499-45.466-112.64h-141.107v-133.734h142.746c8.602-39.117 24.371-76.39 46.694-109.568l-101.786-101.99 94.822-94.822 102.605 102.605c33.178-21.504 70.246-36.659 108.954-44.851v-145.408h133.734v145.408c38.707 8.192 75.571 23.347 108.954 44.851l102.605-102.605 94.822 94.822-101.786 101.99c22.323 33.382 38.093 70.451 46.694 109.568h142.541zM304.538 446.976c0 117.555 95.437 212.992 212.992 212.992s212.992-95.437 212.992-212.992c0-117.555-95.437-212.992-212.992-212.992v0c-117.555 0.205-212.787 95.437-212.992 212.992z" />
<glyph unicode="&#xe504;" glyph-name="share" data-tags="share" d="M832.717 273.92c-36.864 0-72.294-14.336-98.714-40.141l-389.734 195.789c1.638 12.083 1.843 24.576 0.205 36.659l394.035 196.608c58.368-52.224 148.070-47.104 200.294 11.264s47.104 148.070-11.264 200.294c-58.368 52.224-148.070 47.104-200.294-11.264-26.624-29.696-39.322-69.222-35.43-108.954l-394.445-196.813c-59.802 53.862-151.757 49.152-205.619-10.65s-48.947-151.962 10.65-205.824c54.682-49.357 137.626-49.971 193.126-1.638l395.878-198.656c-0.205-2.662-0.205-5.53-0.205-8.192 0-78.234 63.488-141.517 141.517-141.517s141.517 63.488 141.517 141.517c0 78.234-63.283 141.517-141.517 141.517z" />
<glyph unicode="&#xe52d;" glyph-name="category-sort" data-tags="category sort, group by category, sort by category" d="M517.12 678.81v-1.024l-183.296-178.995v78.029l74.547 72.909h-355.942v60.211h353.28l-71.885 70.042v78.029l0.819-0.614 182.477-178.586zM334.643 396.595l-0.819 0.614v-78.029l71.885-70.246h-353.28v-60.211h355.942l-74.547-72.704v-78.029l183.091 178.995v1.024l-182.272 178.586zM975.667 777.933h-407.962v-73.728h407.962v73.728zM975.667 652.595h-407.962v-73.728h407.962v73.728zM975.667 317.133h-407.962v-73.728h407.962v73.728zM975.667 191.795h-407.962v-73.728h407.962v73.728z" />
<glyph unicode="&#xe52e;" glyph-name="alphabetical-sort" data-tags="alphabetical sort" d="M720.486 266.547h-0.614l-178.381 182.272h76.8l73.318-75.162v256h59.392v-253.338l70.861 72.499h76.8l-178.176-182.272zM899.072 448.41l0.614 0.819h-78.029l-70.246-71.885v252.518h-60.211v-255.181l-72.704 74.547h-78.029l178.995-183.091h1.024l178.586 182.272zM542.515 448.41h75.776l73.933-75.776v256.41h58.573v-253.747l71.475 73.114h75.776l-177.562-181.453h-0.41l-177.562 181.453zM498.893 479.539l-157.082 408.781h-66.56l-157.696-408.781h70.042l42.189 113.254h156.467l42.189-113.254h70.451zM363.315 652.595h-111.616l55.706 151.347 55.91-151.347zM461.21 75.264h-218.522l215.245 299.008v47.718h-299.622v-60.826h212.992l-215.654-299.622v-48.333h305.562v62.054z" />
<glyph unicode="&#xe545;" glyph-name="favorite-filled" data-tags="favorite filled" horiz-adv-x="1077" d="M546.048 887.296l108.749-334.848h352.051l-284.877-206.848 108.954-334.848-284.877 206.848-284.877-206.848 108.954 334.848-284.877 206.848h352.051z" />
<glyph unicode="&#xe54a;" glyph-name="favorite-outline" data-tags="favorite outline" horiz-adv-x="1077" d="M830.31 11.776l-284.262 206.438-284.262-206.438 108.544 334.029-284.058 206.438h351.232l108.544 334.029 108.544-334.029h351.232l-284.058-206.438 108.544-334.029zM546.048 279.040l190.669-138.65-72.909 224.256 190.669 138.445h-235.52l-72.909 224.256-72.909-224.256h-235.725l190.669-138.65-72.704-224.256 190.669 138.854z" />
<glyph unicode="&#xe54d;" glyph-name="move-back" data-tags="move back, move left" d="M744.653 911.053l-461.619-461.21 460.186-460.8v257.024l-203.366 203.776 205.21 204.8z" />
<glyph unicode="&#xe554;" glyph-name="stop" data-tags="stop" d="M53.248 909.824h921.6v-921.6h-921.6v921.6z" />
<glyph unicode="&#xe57b;" glyph-name="tag" data-tags="tag" d="M473.771 848.27l-362.496 1.138 0.455-363.179 501.988-501.988 362.041 362.041-501.988 501.988zM194.788 707.641c-15.929 15.929-15.929 41.643 0 57.572s41.643 15.929 57.572 0c15.929-15.929 15.929-41.643 0-57.572 0 0 0 0 0 0-15.929-15.929-41.643-15.929-57.572 0zM613.717 100.068l-386.162 386.162 246.215 246.215 386.162-386.162-246.215-246.215zM724.764 320.569l-275.115 275.115 38.684 38.684 275.115-275.115-38.684-38.684zM604.16 199.964l-275.115 275.115 38.684 38.684 275.115-275.115-38.684-38.684z" />
<glyph unicode="&#xe588;" glyph-name="stored-devices" data-tags="stored devices" d="M973.824 701.747h-921.6v208.077h921.6v-208.077zM921.6 629.248v-640h-817.766v640h817.766zM615.219 554.701h-204.595v-78.643h204.595v78.643z" />
<glyph unicode="&#xe59f;" glyph-name="time-remaining" data-tags="time remaining" d="M974.848 45.568v-57.344h-921.6v57.344h19.046c128.41 143.36 345.702 333.005 417.792 403.046-72.294 70.042-290.816 289.178-419.021 403.866h-17.818v57.344h921.6v-57.344h-15.77l-420.659-404.070 419.43-402.842h16.998zM878.592 860.467l-727.45 0.205 232.448-225.075 495.002 224.87zM514.253 402.33c-62.259-60.211-8.806-8.602-137.421-133.12l400.384-120.627-262.963 253.747z" />
<glyph unicode="&#xe5cd;" glyph-name="undo" data-tags="undo" d="M973.824 448c0-253.952-205.824-459.776-459.776-459.776h-2.048v118.989h2.048c188.826 0 341.811 153.19 341.811 341.811 0 188.826-153.19 341.811-341.811 341.811-84.378 0-165.888-31.334-228.557-87.654l-83.149 82.739c84.787 78.438 196.198 122.061 311.706 121.856 253.952 0 459.776-205.824 459.776-459.776zM56.32 553.882l299.622 78.643-217.088 217.088-82.534-295.731z" />
<glyph unicode="&#xe5d0;" glyph-name="drawer-handle" data-tags="drawer handle" horiz-adv-x="819" d="M49.203 356.045l368.845-369.254 368.845 368.026h-205.619l-163.021-162.611-163.84 164.045zM49.203 539.955l368.845 369.254 368.845-368.026h-205.619l-163.021 162.611-163.84-164.045z" />
<glyph unicode="&#xe5d1;" glyph-name="ungroup" data-tags="ungroup" d="M961.331 133.632c0-74.312-60.242-134.554-134.554-134.554s-134.554 60.242-134.554 134.554c0 74.312 60.242 134.554 134.554 134.554s134.554-60.242 134.554-134.554zM333.619 133.632c0-74.312-60.242-134.554-134.554-134.554s-134.554 60.242-134.554 134.554c0 74.312 60.242 134.554 134.554 134.554s134.554-60.242 134.554-134.554zM647.578 764.826c0-74.312-60.242-134.554-134.554-134.554s-134.554 60.242-134.554 134.554c0 74.312 60.242 134.554 134.554 134.554s134.554-60.242 134.554-134.554z" />
<glyph unicode="&#xe5d3;" glyph-name="upload" data-tags="upload" d="M876.339 455.373v-311.91h-724.582v311.91h-98.509v-410.419h921.6v410.419h-98.509zM693.658 498.381h-131.277v-281.19h-98.509v281.19h-131.277l180.634 180.634 180.429-180.634z" />
<glyph unicode="&#xe5d4;" glyph-name="usb" data-tags="usb" d="M748.339 567.398h70.861v-80.282c0-19.661-6.758-32.358-21.094-39.731-7.987-4.096-16.589-6.349-25.6-6.963h-164.25c-30.31 0-53.453-13.107-70.861-30.106v384.819h94.208l-116.531 115.712-116.736-115.712h92.365v-541.491c-139.878 0-218.112 1.024-252.109 18.022-26.624 13.312-28.058 39.936-28.058 122.061v68.608c49.971 13.312 79.667 64.512 66.56 114.688s-64.512 79.667-114.688 66.56-79.667-64.512-66.56-114.688c8.806-32.973 34.816-58.573 67.994-66.765v-68.198c0-43.008 0-73.933 5.53-99.533 6.963-30.72 22.118-51.405 48.128-64.512 43.622-21.914 117.146-22.733 272.998-22.938v-32.973c-50.381-11.264-82.125-61.235-70.861-111.616s61.235-82.125 111.616-70.861c50.381 11.264 82.125 61.235 70.861 111.616-7.373 33.178-32.358 59.802-65.126 69.427v147.046c4.096 13.517 25.395 74.342 70.861 74.342h164.25c15.77 0.41 31.13 4.301 45.261 11.264 30.925 15.565 47.923 44.646 47.923 82.125v80.282h69.222v186.778h-186.778v-186.982h0.614z" />
<glyph unicode="&#xe5ea;" glyph-name="video-alt" data-tags="video alternate" d="M974.848 807.629l-202.752-204.186v203.776h-718.848v-718.848h718.848v205.619l202.752-204.39v718.029zM335.872 322.048v254.566l220.57-127.386-220.57-127.181z" />
<glyph unicode="&#xe5eb;" glyph-name="temperature" data-tags="temperature, thermal, thermometer" horiz-adv-x="390" d="M303.821 300.749v506.675h-0.205c-3.891 60.416-56.115 106.496-116.531 102.605-55.091-3.482-98.918-47.514-102.605-102.605h-0.205v-506.675c-75.571-60.621-87.654-171.008-27.034-246.579s171.008-87.654 246.579-27.034 87.654 171.008 27.034 246.579c0 0 0 0 0 0-7.987 9.83-16.998 19.046-27.034 27.034v0zM172.134 368.538h-43.827v87.859h43.827v-87.859zM172.134 500.429h-43.827v87.859h43.827v-87.859zM172.134 631.91h-43.827v87.859h43.827v-87.859zM194.253 32.256c-72.704 0-131.686 58.778-131.686 131.482 0 47.104 24.986 90.522 65.741 114.074v46.899h43.827v-75.981c-46.899-12.083-75.162-60.006-63.078-106.906s60.006-75.162 106.906-63.078 75.162 60.006 63.078 106.906c-7.987 30.925-32.154 55.091-63.078 63.078v545.178l-0.205 1.229c-1.434 12.083-12.493 20.48-24.576 19.046-9.83-1.229-17.818-9.011-19.046-19.046l-0.205-1.229v-30.31h-43.827v29.286l0.41 7.168c4.096 36.045 36.659 62.054 72.704 58.163 30.515-3.482 54.682-27.443 58.163-58.163l0.41-7.373v-514.867c62.874-36.25 84.582-116.736 48.333-179.61-23.347-40.96-66.765-65.946-113.869-65.946z" />
<glyph unicode="&#xe5ec;" glyph-name="textual-timeline" data-tags="textual timeline view" d="M360.653 904.090h612.147v-228.147h-612.147v228.147zM285.082 792.474c0 64.102-52.429 116.326-117.146 116.326-64.512 0-116.736-52.224-116.736-116.326 0-50.79 33.178-93.798 78.234-109.773v-115.098c-45.67-15.974-78.438-59.187-78.438-109.773s33.178-93.798 78.234-109.773v-133.53c-45.466-15.974-78.234-59.187-78.234-109.773 0-64.307 52.429-116.326 116.941-116.326 64.717 0 116.941 52.224 116.941 116.326 0 50.79-32.563 93.798-78.029 109.773v133.53c45.056 15.974 78.029 59.187 78.029 109.773s-32.563 93.798-78.029 109.773v114.893c45.466 15.974 78.234 59.187 78.234 109.978zM360.653 573.952h612.147v-230.195h-612.147v230.195zM360.653 217.395h612.147v-230.195h-612.147v230.195z" />
<glyph unicode="&#xe5ed;" glyph-name="user" data-tags="user" d="M511.181 354.406c-125.542 0-227.533 100.966-227.533 224.87s101.99 225.075 227.533 225.075 227.533-100.966 227.533-224.87-102.195-225.075-227.533-225.075zM720.896 327.168h-90.317c-37.683-16.384-78.848-27.034-120.013-27.034-44.851 0.41-89.088 9.421-130.458 27.034h-79.053c-67.789 0-122.88-55.091-122.88-122.88l-25.6-208.896h716.8l-25.6 208.896c0 67.789-55.091 122.88-122.88 122.88z" />
<glyph unicode="&#xe5f3;" glyph-name="edit-columns" data-tags="edit columns" d="M282.624-10.752h-230.4v921.6h230.4v-921.6zM628.736 910.848h-230.4v-921.6h230.4v921.6zM974.848 910.848h-230.4v-921.6h230.4v921.6z" />
<glyph unicode="&#xe5f4;" glyph-name="dashboards" data-tags="dashboards" d="M283.034 586.445c-25.805 0-46.694-20.89-46.694-46.694s20.89-46.694 46.694-46.694 46.694 20.89 46.694 46.694v0 0c0.614 25.19-19.456 46.080-44.851 46.694h-1.843zM742.605 586.445c-25.805 0-46.694-20.89-46.694-46.694s20.89-46.694 46.694-46.694 46.694 20.89 46.694 46.694v0 0c0.614 25.19-19.456 46.080-44.851 46.694v0h-1.843zM512.41 909.824c-254.976-0.819-461.005-208.282-460.186-463.462s208.282-461.21 463.462-460.186 461.21 208.282 460.186 463.462c-1.638 254.566-208.691 460.186-463.462 460.186v0zM789.299 200.806c-80.486 63.898-180.429 97.894-283.034 96.461-97.485-0.41-192.307-31.949-270.541-90.112-58.982 66.97-91.136 153.395-90.112 242.483 2.048 203.571 168.755 366.797 372.326 364.749s366.797-168.755 364.749-372.326c-1.024-89.088-34.202-174.694-93.389-241.254v0zM609.485 726.323c-25.805 0-46.694-20.89-46.694-46.694s20.89-46.694 46.694-46.694 46.694 20.89 46.694 46.694v0 0c0.614 25.19-19.456 46.080-44.851 46.694v0h-1.843zM515.482 383.078l-62.669 64.922 292.659 257.024 24.986-25.395-254.976-296.55zM422.912 723.251c-25.805 0-46.694-20.89-46.694-46.694s20.89-46.694 46.694-46.694 46.694 20.89 46.694 46.694v0 0c0.614 25.19-19.456 46.080-44.851 46.694h-1.843z" />
<glyph unicode="&#xe5f7;" glyph-name="list-textual-view" data-tags="list view, textual view" d="M167.936 906.957v0c63.283 0 114.483-51.2 114.483-114.483v0c0-63.283-51.2-114.483-114.483-114.483v0c-63.283 0-114.483 51.2-114.483 114.483v0c0 63.078 51.405 114.483 114.483 114.483zM166.912 562.688v0c63.283 0 114.483-51.2 114.483-114.483v0c0-63.283-51.2-114.483-114.483-114.483v0c-63.283 0-114.483 51.2-114.483 114.483v0c-0.205 63.283 51.2 114.483 114.483 114.483zM167.322 218.624v0c63.283 0 114.483-51.2 114.483-114.483v0c0-63.283-51.2-114.483-114.483-114.483v0c-63.283 0-114.483 51.2-114.483 114.483v0c0 63.283 51.2 114.483 114.483 114.483zM365.773 874.394h608.051v-164.045h-608.051v164.045zM365.773 530.125h608.051v-164.045h-608.051v164.045zM365.773 184.422h608.051v-164.045h-608.051v164.045z" />
<glyph unicode="&#xe607;" glyph-name="increase-volume" data-tags="increase volume" d="M282.624 268.39h-230.4v360.858h230.4v-360.858zM514.048 909.824l-231.424-280.576v-360.858l231.424-280.166v921.6zM575.898 629.043v-84.787c44.646-55.501 44.646-134.554 0-190.259v-84.787c99.328 65.536 126.771 199.066 61.44 298.394-16.179 24.371-37.069 45.261-61.44 61.44v0zM709.222 679.834v-86.835c67.789-83.968 67.789-203.981 0-287.744v-86.835c127.386 98.509 150.938 281.6 52.429 408.986-15.155 19.661-32.768 37.274-52.429 52.429zM841.114 751.514v-103.014c85.402-119.194 85.402-279.347 0-398.541v-103.014c166.912 153.6 177.766 413.286 24.371 580.198-7.782 8.397-15.974 16.589-24.371 24.371z" />
<glyph unicode="&#xe608;" glyph-name="decrease-volume" data-tags="decrease volume" d="M282.624 268.39h-230.4v360.858h230.4v-360.858zM514.048 909.824l-231.424-280.576v-360.858l231.424-280.166v921.6zM575.898 629.043v-84.787c44.646-55.501 44.646-134.554 0-190.259v-84.787c99.328 65.536 126.771 199.066 61.44 298.394-16.179 24.371-37.069 45.261-61.44 61.44v0z" />
<glyph unicode="&#xe60a;" glyph-name="mute" data-tags="mute" d="M282.624 268.39h-230.4v360.858h230.4v-360.858zM514.048 909.824l-231.424-280.576v-360.858l231.424-280.166v921.6zM565.248 268.8h98.918l100.966 116.736 100.966-116.736h105.472l-155.238 179.61 155.853 180.019h-103.834l-103.219-119.398-103.219 119.398h-97.075l155.853-180.019-155.443-179.61z" />
<glyph unicode="&#xe636;" glyph-name="wifi" data-tags="wifi" d="M53.248 678.605l71.68-71.68c-0.41 0.41 42.189 37.683 46.49 41.165 215.859 172.032 525.926 157.286 724.582-34.611 0.614-0.614 6.963-6.963 6.963-6.758l71.885 71.885c-253.542 254.566-665.19 255.386-919.757 1.843l-1.843-1.843zM196.813 535.040l71.68-71.68c0.205-0.205 18.432 16.794 20.48 18.637 8.602 7.373 17.613 14.336 26.829 20.685 110.387 76.595 254.976 82.739 371.507 15.77 19.456-11.264 37.888-24.371 54.886-39.322 4.096-3.686 8.192-7.373 12.288-11.264 1.024-1.024 4.096-5.734 5.53-4.301l71.27 71.27c-175.104 175.309-459.162 175.514-634.47 0.205v0 0zM445.235 424.243c-37.888-38.093-37.888-99.533 0.205-137.626s99.533-37.888 137.626 0.205c37.888 38.093 37.888 99.533-0.205 137.626-16.384 16.384-37.888 26.214-61.030 28.058-28.467 2.253-56.525-7.987-76.595-28.262z" />
<glyph unicode="&#xe642;" glyph-name="operator" data-tags="operator" d="M871.424-10.752h-716.8l25.6 208.896c0 67.789 55.091 122.88 122.88 122.88v0h79.053c41.37-17.408 85.606-26.624 130.458-27.034 41.165 0 82.33 10.65 120.013 27.034h90.317c67.789 0 122.88-55.091 122.88-122.88v0l25.6-208.896zM612.352 509.030h-204.595l-120.422 40.96c0-124.928 104.653-203.366 224.87-203.366s239.616 105.882 225.69 203.366l-125.542-40.96zM335.872 559.616c40.141-19.046 175.104-24.371 175.104-24.371s135.987 6.554 176.538 26.010c23.347 11.264 77.414 70.861 77.414 70.861s-23.552 16.384-29.082 24.371c-16.998 23.962-33.792 89.907-49.357 107.315-5.12 5.734-19.661 14.131-29.901 20.48 0 0-2.867 2.048-8.192 5.325l-139.469-139.469-136.397 136.397c-2.048-1.229-3.277-2.048-3.277-2.048s-23.962-10.854-33.382-21.299c-15.36-16.998-32.358-83.558-49.152-106.496-6.758-9.011-30.31-24.576-30.31-24.576s55.501-61.235 79.462-72.499zM590.029 820.941c-25.19 11.469-53.862 21.504-78.029 21.914-23.757 0.41-55.091-11.469-82.534-24.781l78.848-78.848 81.715 81.715z" />
<glyph unicode="&#xe643;" glyph-name="service" data-tags="service, services" d="M314.982 497.562c-17.203-4.506-35.021-6.758-53.043-6.963-115.098 0-208.486 92.979-208.691 208.077v0.205c0 25.19 4.506 50.176 13.517 73.523l105.677-106.906h114.278v123.904l-102.4 105.267c24.781 9.216 50.995 14.131 77.414 14.131 115.507 0 208.896-93.798 208.896-209.306 0-24.576-4.301-48.947-12.902-72.090l71.27-71.27 100.147-99.738 64.512-64.512c108.339 39.936 228.557-15.565 268.288-123.904 8.397-23.142 12.902-47.309 12.902-71.885 0-26.419-4.71-52.634-14.131-77.619l-105.267 102.605h-122.266v-114.483l106.291-105.677c-23.552-9.011-48.742-13.722-73.933-13.517-115.302 0-208.486 93.389-208.486 208.691 0 0 0 0 0 0v0c0 17.818 2.253 35.635 6.758 53.043z" />
<glyph unicode="&#xe900;" glyph-name="female-power" data-tags="female power, outlet, receptacle" d="M282.624 679.424h75.776v-231.424h-75.776v231.424zM665.6 679.424h77.824v-231.424h-77.824v231.424zM587.776 321.024c0 42.394-34.406 76.8-76.8 76.8s-76.8-34.406-76.8-76.8v-155.648h153.6v155.648zM51.2 908.8v-921.6h921.6v921.6h-921.6zM921.6 38.4h-819.2v819.2h819.2v-819.2z" />
<glyph unicode="&#xe901;" glyph-name="zone" data-tags="zone" d="M47.104 913.92v-919.962l921.6-0.614v921.6l-921.6-1.024zM149.504 95.539v61.030l62.259-61.030h-62.259zM354.509 95.539l-205.005 205.005v145.203l348.774-350.208h-143.77zM645.12 95.334v0.205l-495.616 493.568v145.613l639.386-639.386h-143.77zM866.304 162.918l-648.806 648.806h149.094l499.712-502.989v-145.818zM868.352 450.048l-360.448 361.677h149.504l210.944-212.173v-149.504zM868.352 744.96l-67.584 66.765h67.584v-66.765z" />
<glyph unicode="&#xe902;" glyph-name="tree-levelup" data-tags="tree level up" horiz-adv-x="780" d="M454.4 679.424h130.048l-230.4 230.4-230.4-230.4h125.952v-407.552h358.4v179.2l-153.6 1.024z" />
<glyph unicode="&#xe903;" glyph-name="event-log" data-tags="event log, warnings" d="M831.283 755.61v62.669h-114.893v-62.464h-145.408v62.464h-116.736v-62.464h-142.541v62.464h-117.35v-62.464h-140.902v-767.795h919.962v767.59h-142.131zM881.050 87.962h-735.232v563.814h735.232v-563.814zM173.261 908.8v-131.891h-102.81v131.891h102.81zM433.971 908.8v-131.891h-102.81v131.891h102.81zM694.477 908.8v-131.891h-102.81v131.891h102.81zM955.187 908.8v-131.891h-102.81v131.891h102.81zM514.253 584.806l-231.014-436.838h460.186l-229.171 436.838zM549.274 461.926l-13.722-190.464h-41.779l-13.517 190.464h69.018zM514.458 177.664c-19.661 0-35.43 15.974-35.43 35.43s15.974 35.43 35.43 35.43c19.661 0 35.43-15.974 35.43-35.43 0-19.661-15.77-35.43-35.43-35.43v0z" />
<glyph unicode="&#xe904;" glyph-name="tree-expand" data-tags="tree expand, move down" horiz-adv-x="1025" d="M53.248 679.219l460.8-460.8 460.8 460.186h-256.819l-203.776-203.571-204.8 204.595z" />
<glyph unicode="&#xe905;" glyph-name="reset-password" data-tags="reset password" horiz-adv-x="1131" d="M972.8 144.077l-354.918-0.819c83.354 27.034 151.962 86.63 190.259 165.478v0c1.229 2.662 2.458 5.325 3.686 7.987 0.614 1.229 1.024 2.458 1.638 3.482 46.285 106.086 31.949 228.762-37.478 321.331-0.819 1.229-1.843 2.458-2.867 3.686s-2.048 2.662-3.277 4.096c-40.346 50.79-94.822 88.064-156.672 107.52h-0.205l27.443 86.426c167.117-53.453 288.358-210.33 288.358-395.264 0.205-72.090-18.637-142.95-54.477-205.619l98.509-98.304zM329.728 185.446c-145.408 101.376-181.043 301.466-79.667 447.078 31.949 45.67 75.162 82.33 125.542 106.291l2.253 1.024c6.963 3.277 13.926 6.144 20.89 8.806h-13.722l-333.824 1.024 98.304-99.328c-33.997-61.44-51.61-130.458-51.61-200.499 0-186.982 123.699-345.293 293.888-397.312l27.648 88.064c-31.949 10.035-62.259 25.19-89.702 44.851zM694.886 476.262v-232.448h-362.496v232.243h55.91v112.23c0 68.403 55.501 123.904 123.904 123.904s123.904-55.501 123.904-123.904v-112.026h58.778zM588.8 590.131c-0.614 41.574-34.816 74.752-76.39 74.342-41.984-0.205-75.981-34.406-76.39-76.39v-112.026h152.781v114.074z" />
<glyph unicode="&#xe906;" glyph-name="male-power" data-tags="male power, plug" horiz-adv-x="1025" d="M974.848 601.6v77.619h-282.419v229.376h-355.123l-282.010-229.581-2.048-460.186 284.058-231.424h355.123v231.424h282.419v75.571h-282.419v307.2z" />
<glyph unicode="&#xe907;" glyph-name="device" data-tags="device" d="M50.176 576v-253.952h921.6v253.952h-921.6zM257.024 406.016h-102.4v83.968h102.4v-83.968zM408.576 406.016h-51.2v83.968h51.2v-83.968z" />
<glyph unicode="&#xe908;" glyph-name="virtual-host" data-tags="virtual host" horiz-adv-x="1026" d="M433.152 462.003h-102.4v36.864h102.4v-36.864zM304.128 380.083h-73.728v-59.392h73.728v59.392zM304.128 513.203h-73.728v-59.392h73.728v59.392zM433.152 365.747h-102.4v-36.864h102.4v36.864zM973.824 348.544c0-96.87-78.438-175.309-175.104-175.309 0 0 0 0-0.205 0v0l-515.277-0.41c-127.59 0-231.014 103.424-231.014 231.014s103.424 230.81 231.014 230.81c5.939 0 11.878-0.205 17.818-0.614 25.19 125.952 147.661 207.462 273.613 182.272s207.462-147.661 182.272-273.408c-1.638-8.602-3.891-17.203-6.758-25.6 93.184 26.419 190.259-27.648 216.883-120.832 4.506-15.565 6.758-31.744 6.758-47.923v0zM619.52 404.659h-407.552v-112.64h407.552v112.64zM619.52 537.779h-407.552v-112.64h407.552v112.64z" />
<glyph unicode="&#xe909;" glyph-name="catalog" data-tags="catalog" d="M975.258 681.062v-638.976h-385.024l-51.814-53.248h-51.814l-51.814 53.248h-381.133v638.976h73.728v-571.392h321.536l40.96-40.96h49.152l40.96 40.96h321.536v571.392h73.728zM852.378 162.918v590.848l-313.344-72.704v-518.349h313.344zM489.882 162.918v514.048l-313.344 72.704v-586.752h313.344z" />
<glyph unicode="&#xe90a;" glyph-name="tree-closeall" data-tags="tree close all" d="M941.21 373.248v280.576h-280.576v-102.4h-360.448v75.776h102.4v282.624h-307.2v-282.624h104.448v-536.576h460.8v-102.4h280.576v282.624h-280.576v-110.592h-360.448v313.344h360.448v-100.352h280.576zM685.21 492.032v45.056h233.472v-45.056h-233.472zM683.162 107.008v43.008h233.472v-43.008h-233.472z" />
<glyph unicode="&#xe90b;" glyph-name="tree-openall" data-tags="tree open all" d="M939.776 373.248v280.576h-280.576v-102.4h-360.448v75.776h102.4v282.624h-307.2v-282.624h104.448v-536.576h460.8v-102.4h280.576v282.624h-280.576v-110.592h-360.448v313.344h360.448v-100.352h280.576zM683.776 537.088h96.256v94.208h43.008v-94.208h94.208v-45.056h-94.208v-94.208h-43.008v94.208h-96.256v45.056zM681.728 150.016h96.256v94.208h43.008v-94.208h94.208v-43.008h-94.208v-94.208h-43.008v94.208h-96.256v43.008z" />
</font>
</defs>
</svg>
